<svg width="24" height="24" viewBox="0 0 24 24" fill="none" xmlns="http://www.w3.org/2000/svg">
<path fill-rule="evenodd" clip-rule="evenodd" d="M11.0616 4.96638C11.5776 3.99238 12.4196 3.98838 12.9376 4.96638L20.0616 18.4244C20.5776 19.3984 20.1066 20.1954 19.0046 20.1954H4.99458C3.89258 20.1954 3.41958 19.4024 3.93758 18.4244L11.0616 4.96638ZM11.2925 14.7065C11.48 14.894 11.7344 14.9994 11.9996 14.9994C12.2648 14.9994 12.5192 14.894 12.7067 14.7065C12.8942 14.5189 12.9996 14.2646 12.9996 13.9994V8.99937C12.9996 8.73416 12.8942 8.4798 12.7067 8.29227C12.5192 8.10473 12.2648 7.99937 11.9996 7.99937C11.7344 7.99937 11.48 8.10473 11.2925 8.29227C11.1049 8.4798 10.9996 8.73416 10.9996 8.99937V13.9994C10.9996 14.2646 11.1049 14.5189 11.2925 14.7065ZM11.2925 17.7065C11.48 17.894 11.7344 17.9994 11.9996 17.9994C12.2648 17.9994 12.5192 17.894 12.7067 17.7065C12.8942 17.5189 12.9996 17.2646 12.9996 16.9994C12.9996 16.7342 12.8942 16.4798 12.7067 16.2923C12.5192 16.1047 12.2648 15.9994 11.9996 15.9994C11.7344 15.9994 11.48 16.1047 11.2925 16.2923C11.1049 16.4798 10.9996 16.7342 10.9996 16.9994C10.9996 17.2646 11.1049 17.5189 11.2925 17.7065Z" fill="#44546F"/>
</svg>
