<svg version="1.1" xmlns="http://www.w3.org/2000/svg" width="512" height="512">
<path d="M0 0 C1.40071147 -0.00571429 2.8014183 -0.01268261 4.20211792 -0.02079773 C7.9791386 -0.03862877 11.75592567 -0.03757974 15.53297567 -0.03185534 C18.69867126 -0.02874846 21.86432294 -0.0348726 25.03001225 -0.04089409 C32.50507191 -0.05490506 39.98001721 -0.05340705 47.45507812 -0.04199219 C55.1384514 -0.03051769 62.82147533 -0.04458308 70.50480258 -0.07138866 C77.12766709 -0.09362 83.75042253 -0.10016628 90.37332165 -0.09431225 C94.31733455 -0.09095876 98.2611237 -0.09324949 102.20510483 -0.11056328 C105.9170006 -0.12614936 109.6283832 -0.12194962 113.34025955 -0.10325813 C115.33219477 -0.0978774 117.32415369 -0.11199762 119.31604004 -0.12695312 C131.22131228 -0.03048797 141.50869816 2.79506187 150.83642578 10.40405273 C151.53449813 11.25066436 152.23257048 12.09727598 152.95179653 12.9695425 C156.62574726 16.07020809 159.43165135 16.09704066 164.02565002 16.01637268 C164.84633294 16.02190609 165.66701585 16.02743951 166.51256794 16.0331406 C169.26108714 16.04571508 172.00815486 16.0227344 174.7565918 16 C176.72798491 16.00190393 178.69937695 16.00605939 180.67076111 16.01229858 C184.91661096 16.02109443 189.16205233 16.01432319 193.40786934 15.99563789 C200.12845999 15.96655058 206.84869861 15.97433885 213.56932068 15.98753357 C226.63265108 16.0082109 239.69581164 15.99260041 252.75913239 15.97206116 C269.36147216 15.94693536 285.96371565 15.9341212 302.56605858 15.96201748 C309.23897572 15.97194455 315.91146954 15.96190325 322.58434021 15.93610966 C326.74877182 15.92388694 330.91307311 15.92816641 335.07750893 15.93668747 C336.99948962 15.93721992 338.92148695 15.93095493 340.84341812 15.91714668 C358.07193287 15.79944552 370.58224946 18.65140884 383.58642578 30.71655273 C392.94960365 40.6097218 396.30648408 52.04150956 396.22410583 65.39645386 C396.23218414 66.98915547 396.23218414 66.98915547 396.24042565 68.61403286 C396.25465651 72.1481636 396.24761337 75.68191721 396.24047852 79.21606445 C396.24618462 81.75961608 396.25314981 84.30316516 396.26127625 86.84671021 C396.27733754 93.02436067 396.27931359 99.20187342 396.27406334 105.3795384 C396.27001189 110.40399762 396.27147674 115.42842687 396.2768116 120.45288467 C396.27756002 121.16965902 396.27830844 121.88643337 396.27907955 122.62492815 C396.28061112 124.08134405 396.28214947 125.53775993 396.28369451 126.99417581 C396.29740345 140.63374311 396.29199327 154.27325295 396.2805093 167.91281892 C396.27057946 180.37159656 396.2835161 192.83022563 396.30744349 205.28898035 C396.33186776 218.10371094 396.34143415 230.91837242 396.33479077 243.73312581 C396.33130581 250.91879607 396.33348252 258.10435215 396.35104179 265.29000473 C396.3673535 272.04854959 396.36253054 278.80676634 396.34373665 285.56531906 C396.34005688 288.04039965 396.34314126 290.51550131 396.35362244 292.99056244 C396.42854663 312.15182446 395.07776357 325.54531719 381.52392578 340.15405273 C370.1577944 350.91128422 357.71414441 352.85902122 342.59207153 352.79173279 C341.0575636 352.79591109 339.52305876 352.80139133 337.9885596 352.8080526 C333.79287284 352.82246083 329.5973833 352.81827701 325.40168595 352.81088579 C320.86851059 352.80614493 316.33537733 352.81867208 311.80221558 352.8289032 C302.92947825 352.84607863 294.05681177 352.8469338 285.18406214 352.84169029 C277.97043715 352.83764498 270.75683307 352.83909645 263.54320908 352.84443855 C262.00178687 352.84556119 262.00178687 352.84556119 260.42922481 352.8467065 C258.34146492 352.84823801 256.25370504 352.84977636 254.16594516 352.85132147 C234.59764999 352.865042 215.02939482 352.85961198 195.46110056 352.84813625 C177.57045807 352.83820462 159.67991901 352.85114415 141.78929247 352.87507045 C123.40586545 352.89947 105.02248658 352.90906719 86.63904369 352.90241772 C76.32347091 352.89892737 66.00797766 352.9011454 55.69241714 352.91866875 C46.91094804 352.93340142 38.12961448 352.93401221 29.348148 352.91659784 C24.87066783 352.90809423 20.39342968 352.90592263 15.91596222 352.92124939 C11.8113371 352.93512556 7.70716069 352.93029601 3.60256134 352.91101015 C2.12351919 352.90725878 0.64444085 352.9101471 -0.83456896 352.9206218 C-16.73502032 353.02516004 -28.23328395 348.92840848 -39.91357422 338.09155273 C-49.48772523 327.97546865 -52.6302164 316.42329172 -52.55125427 302.80422974 C-52.55663981 301.67709183 -52.56202535 300.54995392 -52.56757408 299.38866031 C-52.58181598 295.63342429 -52.57475901 291.87854264 -52.56762695 288.12329102 C-52.57333249 285.42209773 -52.58019747 282.72092938 -52.58842468 280.01974487 C-52.60557411 273.45709354 -52.60646071 266.89453812 -52.60121178 260.33187021 C-52.59716152 254.99467318 -52.59862378 249.65750438 -52.60396004 244.32030869 C-52.60470846 243.55912856 -52.60545688 242.79794843 -52.60622798 242.01370224 C-52.60775955 240.46709435 -52.60929789 238.92048646 -52.61084295 237.37387858 C-52.62455412 222.88735046 -52.61914012 208.40087642 -52.60765774 193.91434954 C-52.59772755 180.67959209 -52.61066475 167.44497448 -52.63459193 154.21023859 C-52.65901143 140.59998018 -52.66858376 126.98978682 -52.6619392 113.37950695 C-52.65845321 105.74670842 -52.66063791 98.11401739 -52.67819023 90.4812355 C-52.69294797 83.98345309 -52.69350129 77.48585387 -52.67611932 70.98807491 C-52.66763579 67.67704344 -52.66758162 64.3666058 -52.68077087 61.05554962 C-52.69401112 57.45600874 -52.68240492 53.85734675 -52.66477966 50.25784302 C-52.67438467 49.22571658 -52.68398968 48.19359015 -52.69388574 47.13018715 C-52.55560501 33.33432643 -47.11285156 22.63667596 -37.85107422 12.65405273 C-26.83910153 2.23200715 -14.69957297 -0.05122881 0 0 Z M-16.10107422 38.15405273 C-20.36165398 44.86769357 -20.45443119 51.16658408 -20.42427063 58.90402222 C-20.42809618 59.9490425 -20.43192172 60.99406279 -20.4358632 62.07075036 C-20.44616643 65.56585442 -20.44220608 69.06079338 -20.43823242 72.5559082 C-20.44258037 75.06447501 -20.4477638 77.5730405 -20.45372009 80.081604 C-20.4657219 86.18443927 -20.46826254 92.28721385 -20.46591983 98.39005862 C-20.46413488 103.35215755 -20.4658901 108.31424315 -20.47014427 113.27634048 C-20.47073946 113.98328603 -20.47133465 114.69023157 -20.47194787 115.4185997 C-20.47315966 116.85488938 -20.4743738 118.29117907 -20.47559025 119.72746874 C-20.48646041 133.18951598 -20.48430582 146.65153815 -20.47820541 160.1135868 C-20.47303706 172.41935967 -20.48429043 184.72505337 -20.50330362 197.03081058 C-20.52269257 209.67705192 -20.53093615 222.32325581 -20.52718037 234.9695121 C-20.52526989 242.06512885 -20.52774098 249.16067821 -20.54189491 256.25628281 C-20.55507169 262.92936964 -20.55253437 269.60227251 -20.53948402 276.27536774 C-20.53711747 278.72268095 -20.53985573 281.17000531 -20.54810715 283.61730576 C-20.55856922 286.96175961 -20.55047767 290.30568113 -20.53779602 293.65011597 C-20.54517031 294.61520832 -20.55254459 295.58030067 -20.56014234 296.57463825 C-20.50949357 302.93759946 -20.0236424 309.83585671 -15.88866884 314.99461353 C-8.58418 321.66449239 0.75446027 320.6919226 9.98092651 320.66474915 C11.43248539 320.6677715 12.88404268 320.6716614 14.33559716 320.67634171 C18.31578771 320.68661971 22.29588816 320.6844404 26.27608609 320.68016112 C30.57202706 320.67769354 34.86794636 320.68670846 39.16387939 320.69419861 C47.57679849 320.70694676 55.98968567 320.70873915 64.40261279 320.70639835 C71.24114087 320.70461515 78.07965927 320.70636487 84.91818619 320.71062279 C85.89156641 320.71121798 86.86494663 320.71181317 87.86782322 320.71242639 C89.8452649 320.71363815 91.82270658 320.71485228 93.80014826 320.71606877 C112.34396519 320.72694477 130.88776392 320.72478154 149.43158187 320.71868392 C166.39324511 320.71351479 183.35485092 320.72477001 200.31650279 320.74378214 C217.73591446 320.76315757 235.15529895 320.77141705 252.57472146 320.76765889 C262.35311595 320.76574639 272.13146156 320.76823918 281.90984726 320.78237343 C290.23434823 320.79428443 298.55877023 320.79569526 306.88327228 320.78358326 C311.12944596 320.7776926 315.37547517 320.77660031 319.62163925 320.78858566 C323.51151241 320.79943763 327.40112035 320.79634937 331.29098107 320.78232398 C332.69536399 320.77967515 334.09976765 320.78204945 335.50413023 320.79005984 C347.64528128 321.05820415 347.64528128 321.05820415 358.41275012 316.12914735 C363.58732197 310.52150734 364.13535421 303.62275517 364.09712219 296.33377075 C364.10094774 295.55009782 364.10477329 294.76642488 364.10871476 293.95900428 C364.11898545 291.34833255 364.11506395 288.7378832 364.11108398 286.12719727 C364.11543375 284.24916379 364.12061779 282.3711321 364.12657166 280.49310303 C364.13994465 275.40214647 364.14054219 270.31126422 364.13800836 265.22029352 C364.13693745 260.96590259 364.1418251 256.71152662 364.14661378 252.4571389 C364.15770318 242.41778495 364.15814961 232.37846843 364.15209961 222.33911133 C364.14606006 211.9922931 364.15837169 201.64561087 364.17966968 191.29881585 C364.19729968 182.40602984 364.20328481 173.51328707 364.20003194 164.62048423 C364.19822111 159.31337973 364.20083528 154.00637223 364.21474648 148.6992836 C364.22734285 143.70713259 364.22536353 138.71519319 364.21233559 133.72304535 C364.20997417 131.89495395 364.21268884 130.06684757 364.22095871 128.23877335 C364.84801437 114.2755424 364.84801437 114.2755424 359.56151295 101.84388924 C354.25373457 96.88784523 347.74562695 96.15444215 340.77339172 96.15249634 C340.09800785 96.1495262 339.42262397 96.14655606 338.72677392 96.14349592 C336.48239298 96.13590809 334.23827782 96.14232836 331.99389648 96.14868164 C330.37688521 96.1459292 328.75987529 96.14224777 327.14286804 96.13771057 C323.66875187 96.12961764 320.1947 96.12742536 316.72057533 96.12965775 C311.21805733 96.13249968 305.71566682 96.118105 300.21318054 96.10067749 C284.56881628 96.05373777 268.92446088 96.02972123 253.2800293 96.02319336 C244.63337265 96.0194332 235.98686061 96.00132708 227.34026593 95.968099 C221.88000534 95.9479701 216.42011986 95.94547294 210.95983756 95.95637918 C207.54923612 95.95900162 204.13884933 95.94490777 200.72830391 95.92629814 C199.15787797 95.92101284 197.58741158 95.92240957 196.01700211 95.93133354 C181.09562812 96.00922326 169.46786015 93.03183195 158.14892578 83.02905273 C150.42092442 74.25672687 145.77851345 64.57185912 140.79541016 54.08911133 C139.77799373 51.95703951 138.74548517 49.83277866 137.71142578 47.70874023 C137.41123535 47.06484344 137.11104492 46.42094666 136.80175781 45.75753784 C134.63432991 41.32629541 132.06237854 37.1047649 127.83642578 34.40405273 C121.12045198 32.16247907 114.72270531 32.1137869 107.68823242 32.12939453 C106.49207809 32.1242836 105.29592377 32.11917267 104.06352234 32.11390686 C100.8031172 32.10243732 97.54287079 32.09992936 94.28245091 32.10247016 C91.55151273 32.10354507 88.82059761 32.09864335 86.0896644 32.09386474 C79.6426849 32.08279677 73.19576368 32.08231701 66.7487793 32.08837891 C60.11744202 32.09441863 53.48631691 32.08210163 46.85501581 32.06080884 C41.14264554 32.04314713 35.43034254 32.0371986 29.71794599 32.04044658 C26.31449475 32.04225212 22.91119493 32.03969659 19.50776863 32.02573204 C15.70968511 32.01336158 11.91208969 32.0201635 8.11401367 32.03173828 C6.99944794 32.02409454 5.8848822 32.01645081 4.73654175 32.00857544 C-2.68060753 32.05840106 -10.76870174 32.34004821 -16.10107422 38.15405273 Z M174.83642578 48.40405273 C176.10924828 52.40357121 177.23501436 55.43308296 179.96142578 58.65405273 C180.50025391 59.31920898 181.03908203 59.98436523 181.59423828 60.66967773 C188.74100639 66.19783982 199.31939409 64.70464362 207.88769531 64.70703125 C209.51459166 64.71470098 211.14148406 64.72324897 212.76837158 64.73260498 C216.25938469 64.75082256 219.75034489 64.76289991 223.24139786 64.77014351 C228.76335663 64.78166699 234.28519839 64.80713858 239.80709839 64.8344574 C248.54032567 64.87603981 257.27355865 64.90848629 266.00683773 64.93693155 C281.65053164 64.98796884 297.29417624 65.05014709 312.93778694 65.12227196 C318.42551705 65.14715349 323.91323183 65.16660304 329.4009974 65.1816541 C332.81450815 65.19187118 336.22799489 65.20601713 339.64148712 65.22113037 C341.22249917 65.22727578 342.80351879 65.23174074 344.38454056 65.23438835 C346.54531456 65.23821304 348.70598347 65.24804199 350.86672974 65.2592926 C352.07494951 65.26314752 353.28316929 65.26700243 354.52800179 65.27097416 C357.71381543 65.39912084 360.70806535 65.80512903 363.83642578 66.40405273 C362.90569249 60.15285901 361.72559911 55.77310124 356.83642578 51.40405273 C348.42067756 47.5925006 339.97490086 48.00043438 330.93383789 48.06347656 C329.2280987 48.06432383 327.52235843 48.06384575 325.81661987 48.06214905 C321.20769871 48.06129156 316.59901382 48.07887733 311.99014735 48.09987092 C307.16552743 48.11867887 302.34090154 48.1203914 297.51625061 48.12394714 C288.38980357 48.13325553 279.26346489 48.15785295 270.13706547 48.18799561 C259.74287393 48.22157722 249.34867709 48.23803508 238.95444477 48.25308192 C217.58171139 48.2844036 196.20907543 48.33714058 174.83642578 48.40405273 Z " fill="#44536E" transform="translate(84.16357421875,79.595947265625)"/>
</svg>
