<svg width="24" height="24" viewBox="0 0 24 24" fill="none" xmlns="http://www.w3.org/2000/svg">
<path fill-rule="evenodd" clip-rule="evenodd" d="M11.94 12C10.7767 13.209 10.1278 14.8222 10.13 16.5C10.13 18.126 10.727 19.612 11.713 20.752C8.161 21.448 3 20.68 3 18.446V14C3 12.895 3.902 12 5.009 12H11.939H11.94ZM9 11C7.93913 11 6.92172 10.5786 6.17157 9.82843C5.42143 9.07828 5 8.06087 5 7C5 5.93913 5.42143 4.92172 6.17157 4.17157C6.92172 3.42143 7.93913 3 9 3C10.0609 3 11.0783 3.42143 11.8284 4.17157C12.5786 4.92172 13 5.93913 13 7C13 8.06087 12.5786 9.07828 11.8284 9.82843C11.0783 10.5786 10.0609 11 9 11ZM16.5 22C15.0413 22 13.6424 21.4205 12.6109 20.3891C11.5795 19.3576 11 17.9587 11 16.5C11 15.0413 11.5795 13.6424 12.6109 12.6109C13.6424 11.5795 15.0413 11 16.5 11C17.9587 11 19.3576 11.5795 20.3891 12.6109C21.4205 13.6424 22 15.0413 22 16.5C22 17.9587 21.4205 19.3576 20.3891 20.3891C19.3576 21.4205 17.9587 22 16.5 22ZM14.608 16.192C14.4516 16.0463 14.2448 15.9669 14.031 15.9707C13.8173 15.9745 13.6134 16.0611 13.4622 16.2122C13.3111 16.3634 13.2245 16.5673 13.2207 16.781C13.2169 16.9948 13.2963 17.2016 13.442 17.358L15.092 19.008C15.2467 19.1625 15.4564 19.2493 15.675 19.2493C15.8936 19.2493 16.1033 19.1625 16.258 19.008L19.558 15.708C19.7037 15.5516 19.7831 15.3448 19.7793 15.131C19.7755 14.9173 19.6889 14.7134 19.5378 14.5622C19.3866 14.4111 19.1827 14.3245 18.969 14.3207C18.7552 14.3169 18.5484 14.3963 18.392 14.542L15.675 17.258L14.608 16.192V16.192Z" fill="#44546F"/>
</svg>
