<svg width="24" height="24" viewBox="0 0 24 24" fill="none" xmlns="http://www.w3.org/2000/svg">
<path fill-rule="evenodd" clip-rule="evenodd" d="M5.46728 14.9503L8.07828 14.2943C8.07828 14.2943 8.71827 14.0573 8.73027 13.3163L8.72028 12.1043C8.72028 12.1043 8.75828 11.6333 9.35728 11.5473C11.1253 11.2203 12.7753 11.2073 14.5393 11.5473C15.2283 11.6783 15.1753 12.1043 15.1753 12.1043L15.1823 12.9933C15.1953 13.7333 15.8343 13.9703 15.8343 13.9703L18.4273 14.9523C19.6543 15.3223 20.2953 13.4793 19.8673 12.3783C18.8763 9.82128 15.8713 9.38428 13.5863 9.08428C12.5013 8.94128 11.2953 9.00728 10.3123 9.08428C8.59228 9.22128 5.14228 9.79728 4.14728 12.3543C3.72028 13.4543 4.24028 15.3203 5.46728 14.9503V14.9503Z" fill="#44546F"/>
</svg>
