<svg width="160" height="137" viewBox="0 0 160 137" fill="none" xmlns="http://www.w3.org/2000/svg">
<g clip-path="url(#clip0_15239_24148)">
<rect width="160" height="136.01" transform="translate(0 0.0192871)" fill="white" fill-opacity="0.01"/>
<path d="M111.697 39.5518H14.3168V136.061H111.697V39.5518Z" fill="#CFD4DB"/>
<path d="M111.761 39.5518H41.4026V107.402H111.761V39.5518Z" fill="url(#paint0_linear_15239_24148)"/>
<path d="M54.752 71.9258H31.6646V73.2156H54.752V71.9258Z" fill="white"/>
<path d="M54.752 64.2515H31.6646V65.5413H54.752V64.2515Z" fill="white"/>
<path d="M44.1756 56.5771H31.6646V57.867H44.1756V56.5771Z" fill="white"/>
<path d="M27.4082 56.5771H24.5707V57.867H27.4082V56.5771Z" fill="white"/>
<path d="M27.4082 64.2515H24.5707V65.5413H27.4082V64.2515Z" fill="white"/>
<path d="M27.4082 71.9258H24.5707V73.2156H27.4082V71.9258Z" fill="white"/>
<path d="M27.4082 79.5356H24.5707V80.8254H27.4082V79.5356Z" fill="white"/>
<path d="M27.4082 87.21H24.5707V88.4998H27.4082V87.21Z" fill="white"/>
<path d="M27.4082 94.8198H24.5707V96.1096H27.4082V94.8198Z" fill="white"/>
<path d="M27.4082 102.494H24.5707V103.784H27.4082V102.494Z" fill="white"/>
<path d="M27.4082 110.168H24.5707V111.458H27.4082V110.168Z" fill="white"/>
<path d="M27.4082 117.778H24.5707V119.068H27.4082V117.778Z" fill="white"/>
<path d="M98.9278 94.8198H59.5889V96.1096H98.9278V94.8198Z" fill="white"/>
<path d="M55.2034 94.8198H31.6646V96.1096H55.2034V94.8198Z" fill="white"/>
<path d="M102.668 102.494H69.1979V103.784H102.668V102.494Z" fill="white"/>
<path d="M64.877 102.494H44.1757V103.784H64.877V102.494Z" fill="white"/>
<path d="M89.7057 110.168H44.1757V111.458H89.7057V110.168Z" fill="white"/>
<path d="M75.5179 117.778H56.6868V119.068H75.5179V117.778Z" fill="white"/>
<path d="M67.7791 79.5356H46.1749V80.8254H67.7791V79.5356Z" fill="white"/>
<path d="M67.7791 87.21H46.1749V88.4998H67.7791V87.21Z" fill="white"/>
<path d="M26.8923 88.6931C22.4063 88.6856 18.0227 90.0344 14.3168 92.5626V99.721C16.569 97.2323 19.509 95.4678 22.7646 94.651C26.0202 93.8341 29.4449 94.0015 32.6053 95.1321C35.7657 96.2626 38.5195 98.3055 40.5183 101.002C42.517 103.698 43.6707 106.927 43.8334 110.28C43.996 113.633 43.1603 116.958 41.432 119.835C39.7037 122.713 37.1605 125.012 34.1245 126.444C31.0884 127.875 27.6959 128.373 24.3766 127.875C21.0572 127.377 17.9602 125.906 15.4776 123.647L14.3168 122.486V129.644C17.2159 131.593 20.5308 132.835 23.9962 133.273C27.4617 133.71 30.9814 133.331 34.2738 132.164C37.5661 130.997 40.5397 129.076 42.9564 126.554C45.3731 124.032 47.1659 120.979 48.1912 117.64C49.2166 114.301 49.4461 110.768 48.8614 107.325C48.2766 103.881 46.8939 100.622 44.8238 97.8087C42.7537 94.9953 40.0537 92.7055 36.94 91.1226C33.8263 89.5397 30.3853 88.7077 26.8923 88.6931Z" fill="#CFD4DB"/>
<path d="M149.617 0.0192871H52.2369V96.5287H149.617V0.0192871Z" fill="url(#paint1_linear_15239_24148)"/>
<path d="M92.6723 32.3933H69.5848V33.6831H92.6723V32.3933Z" fill="#FFAB00"/>
<path d="M92.6723 24.719H69.5848V26.0088H92.6723V24.719Z" fill="#0065FF"/>
<path d="M82.0959 17.0447H69.5848V18.3345H82.0959V17.0447Z" fill="#E5E8EC"/>
<path d="M65.264 17.0447H62.4264V18.3345H65.264V17.0447Z" fill="#E5E8EC"/>
<path d="M65.264 24.719H62.4264V26.0088H65.264V24.719Z" fill="#E5E8EC"/>
<path d="M65.264 32.3933H62.4264V33.6831H65.264V32.3933Z" fill="#E5E8EC"/>
<path d="M65.264 40.0032H62.4264V41.293H65.264V40.0032Z" fill="#E5E8EC"/>
<path d="M65.264 47.6775H62.4264V48.9673H65.264V47.6775Z" fill="#E5E8EC"/>
<path d="M65.264 55.2874H62.4264V56.5772H65.264V55.2874Z" fill="#E5E8EC"/>
<path d="M65.264 62.9617H62.4264V64.2515H65.264V62.9617Z" fill="#E5E8EC"/>
<path d="M65.264 70.636H62.4264V71.9258H65.264V70.636Z" fill="#E5E8EC"/>
<path d="M65.264 78.2458H62.4264V79.5357H65.264V78.2458Z" fill="#E5E8EC"/>
<path d="M136.784 55.2874H97.4446V56.5772H136.784V55.2874Z" fill="#FFAB00"/>
<path d="M93.1237 55.2874H69.5848V56.5772H93.1237V55.2874Z" fill="#E5E8EC"/>
<path d="M140.588 62.9617H107.118V64.2515H140.588V62.9617Z" fill="#FFAB00"/>
<path d="M102.733 62.9617H82.0314V64.2515H102.733V62.9617Z" fill="#0065FF"/>
<path d="M127.561 70.636H82.0314V71.9258H127.561V70.636Z" fill="#0065FF"/>
<path d="M113.374 78.2458H94.5425V79.5357H113.374V78.2458Z" fill="#E5E8EC"/>
<path d="M105.699 40.0032H84.0951V41.293H105.699V40.0032Z" fill="#E5E8EC"/>
<path d="M105.699 47.6775H84.0951V48.9673H105.699V47.6775Z" fill="#E5E8EC"/>
<path opacity="0.5" d="M149.617 42.5828C146.76 39.2024 142.964 36.7453 138.711 35.522C134.457 34.2988 129.936 34.3644 125.72 35.7105C121.504 37.0566 117.781 39.6228 115.023 43.0846C112.265 46.5464 110.596 50.7482 110.226 55.1587C109.856 59.5693 110.803 63.9905 112.946 67.8631C115.089 71.7358 118.332 74.886 122.265 76.9155C126.199 78.9449 130.645 79.7624 135.043 79.2645C139.441 78.7666 143.593 76.9758 146.973 74.1184C147.917 73.3027 148.801 72.419 149.617 71.4743V42.5828ZM132.527 73.9895C129.173 73.9895 125.893 72.9947 123.104 71.131C120.315 69.2673 118.141 66.6184 116.857 63.5192C115.574 60.42 115.238 57.0097 115.892 53.7196C116.547 50.4296 118.162 47.4074 120.534 45.0354C122.906 42.6634 125.928 41.048 129.218 40.3935C132.508 39.7391 135.919 40.075 139.018 41.3587C142.117 42.6425 144.766 44.8164 146.63 47.6056C148.493 50.3948 149.488 53.674 149.488 57.0286C149.488 61.5269 147.701 65.8409 144.52 69.0217C141.339 72.2025 137.025 73.9895 132.527 73.9895Z" fill="#091E42"/>
<path d="M9.52344 120.605L-0.0528564 130.181L2.68323 132.917L12.2595 123.341L9.52344 120.605Z" fill="#0065FF"/>
<path d="M135.752 73.4737C146.615 73.4737 155.421 64.6674 155.421 53.8043C155.421 42.9411 146.615 34.1348 135.752 34.1348C124.888 34.1348 116.082 42.9411 116.082 53.8043C116.082 64.6674 124.888 73.4737 135.752 73.4737Z" fill="#344563"/>
<path d="M140.524 55.9968H115.244V59.8662H140.524V55.9968Z" fill="#FDC150"/>
<path d="M140.524 43.8081H117.823V47.6775H140.524V43.8081Z" fill="#FAFBFC"/>
<path opacity="0.5" d="M155.421 53.8042C155.421 53.0948 155.421 52.4499 155.357 51.7405C153.422 45.8677 149.248 40.9953 143.742 38.1819C138.236 35.3684 131.842 34.841 125.949 36.7143C122.954 38.4358 120.466 40.9157 118.734 43.9044C117.001 46.8932 116.087 50.2853 116.082 53.7397C116.747 51.4738 117.857 49.363 119.346 47.5301C120.835 45.6973 122.674 44.1791 124.756 43.0641C126.838 41.949 129.121 41.2594 131.472 41.0353C133.822 40.8112 136.194 41.0572 138.449 41.7589C140.704 42.4606 142.797 43.604 144.606 45.1225C146.414 46.641 147.903 48.5042 148.984 50.6037C150.065 52.7031 150.718 54.9967 150.904 57.3509C151.091 59.7051 150.806 62.0728 150.068 64.3161C149.446 66.2611 148.509 68.0911 147.295 69.7333C149.812 67.909 151.861 65.5144 153.273 62.7455C154.685 59.9767 155.422 56.9125 155.421 53.8042Z" fill="#091E42"/>
<path d="M135.752 75.4083C131.479 75.4083 127.302 74.1413 123.749 71.7674C120.196 69.3935 117.427 66.0194 115.792 62.0717C114.157 58.1241 113.729 53.7802 114.563 49.5894C115.396 45.3986 117.454 41.5491 120.475 38.5277C123.497 35.5063 127.346 33.4487 131.537 32.6151C135.728 31.7815 140.072 32.2093 144.019 33.8445C147.967 35.4797 151.341 38.2487 153.715 41.8015C156.089 45.3543 157.356 49.5312 157.356 53.8042C157.356 59.5339 155.08 65.029 151.028 69.0806C146.977 73.1322 141.481 75.4083 135.752 75.4083ZM135.752 36.0694C132.244 36.0694 128.815 37.1095 125.899 39.0582C122.982 41.0069 120.709 43.7767 119.367 47.0173C118.025 50.258 117.673 53.8238 118.358 57.264C119.042 60.7042 120.731 63.8643 123.211 66.3445C125.692 68.8248 128.852 70.5139 132.292 71.1982C135.732 71.8825 139.298 71.5313 142.538 70.189C145.779 68.8466 148.549 66.5735 150.498 63.6571C152.446 60.7406 153.486 57.3118 153.486 53.8042C153.486 49.1006 151.618 44.5897 148.292 41.2638C144.966 37.9378 140.455 36.0694 135.752 36.0694Z" fill="#0065FF"/>
<path d="M25.0221 127.387C35.8853 127.387 44.6916 118.581 44.6916 107.718C44.6916 96.8547 35.8853 88.0483 25.0221 88.0483C14.159 88.0483 5.35266 96.8547 5.35266 107.718C5.35266 118.581 14.159 127.387 25.0221 127.387Z" fill="#E5E8EC"/>
<path d="M34.3087 116.037H22.8295V119.906H34.3087V116.037Z" fill="white"/>
<path d="M34.3087 103.913H22.8295V107.782H34.3087V103.913Z" fill="white"/>
<path d="M33.7928 91.7241H22.8295V95.5935H33.7928V91.7241Z" fill="white"/>
<path opacity="0.2" d="M27.9242 88.2417C22.3304 88.4275 16.9858 90.6003 12.8493 94.3705C8.71275 98.1407 6.05494 103.261 5.35266 108.814C5.56917 112.702 6.93498 116.439 9.27704 119.55C11.6191 122.661 14.832 125.007 18.5086 126.291C16.4691 125.016 14.709 123.342 13.3346 121.368C11.9602 119.395 11 117.163 10.5119 114.808C10.0239 112.453 10.0181 110.024 10.4951 107.667C10.972 105.309 11.9216 103.073 13.2867 101.093C14.6518 99.1133 16.404 97.4304 18.4375 96.1463C20.471 94.8623 22.7436 94.0036 25.1181 93.6222C27.4927 93.2408 29.9199 93.3446 32.2532 93.9273C34.5865 94.5099 36.7776 95.5594 38.6941 97.0124C40.9285 98.5242 42.7827 100.533 44.1112 102.881C43.1369 99.127 41.085 95.7404 38.2085 93.1389C35.332 90.5375 31.7569 88.8351 27.9242 88.2417Z" fill="#091E42"/>
<path d="M25.0222 129.322C20.7493 129.322 16.5723 128.055 13.0195 125.681C9.46673 123.307 6.69767 119.933 5.0625 115.985C3.42733 112.038 2.99949 107.694 3.8331 103.503C4.6667 99.3122 6.7243 95.4627 9.7457 92.4413C12.7671 89.4199 16.6166 87.3623 20.8074 86.5287C24.9982 85.6951 29.3421 86.1229 33.2897 87.7581C37.2374 89.3932 40.6115 92.1623 42.9854 95.7151C45.3593 99.2679 46.6264 103.445 46.6264 107.718C46.6264 113.448 44.3502 118.943 40.2986 122.994C36.2471 127.046 30.752 129.322 25.0222 129.322ZM25.0222 89.9829C21.5146 89.9829 18.0857 91.0231 15.1693 92.9718C12.2528 94.9205 9.97967 97.6903 8.63737 100.931C7.29506 104.172 6.94385 107.737 7.62815 111.178C8.31246 114.618 10.0015 117.778 12.4818 120.258C14.962 122.738 18.1221 124.427 21.5623 125.112C25.0025 125.796 28.5684 125.445 31.809 124.103C35.0496 122.76 37.8194 120.487 39.7681 117.571C41.7168 114.654 42.757 111.225 42.757 107.718C42.757 103.014 40.8885 98.5033 37.5626 95.1773C34.2366 91.8514 29.7257 89.9829 25.0222 89.9829Z" fill="#0065FF"/>
<path d="M150.447 66.7744L147.71 69.5105L157.268 79.0685L160.005 76.3325L150.447 66.7744Z" fill="#0065FF"/>
</g>
<defs>
<linearGradient id="paint0_linear_15239_24148" x1="76.5626" y1="107.402" x2="76.5626" y2="10.8923" gradientUnits="userSpaceOnUse">
<stop stop-color="#E5E8EC" stop-opacity="0.1"/>
<stop offset="0.08" stop-color="#E1E4E9" stop-opacity="0.27"/>
<stop offset="0.18" stop-color="#DCE0E5" stop-opacity="0.46"/>
<stop offset="0.29" stop-color="#D8DCE2" stop-opacity="0.63"/>
<stop offset="0.4" stop-color="#D5D9DF" stop-opacity="0.76"/>
<stop offset="0.53" stop-color="#D2D7DD" stop-opacity="0.87"/>
<stop offset="0.66" stop-color="#D0D5DC" stop-opacity="0.94"/>
<stop offset="0.8" stop-color="#CFD4DB" stop-opacity="0.99"/>
<stop offset="1" stop-color="#CFD4DB"/>
</linearGradient>
<linearGradient id="paint1_linear_15239_24148" x1="52.4369" y1="96.748" x2="149.378" y2="-0.19998" gradientUnits="userSpaceOnUse">
<stop stop-color="#172B4D"/>
<stop offset="0.58" stop-color="#192D4E"/>
<stop offset="0.78" stop-color="#203354"/>
<stop offset="0.93" stop-color="#2B3D5C"/>
<stop offset="1" stop-color="#344563"/>
</linearGradient>
<clipPath id="clip0_15239_24148">
<rect width="160" height="136.01" fill="white" transform="translate(0 0.0192871)"/>
</clipPath>
</defs>
</svg>
