<svg width="24" height="24" viewBox="0 0 24 24" fill="none" xmlns="http://www.w3.org/2000/svg">
<path d="M11.9999 10.586L6.70692 5.29302C6.51832 5.11086 6.26571 5.01007 6.00352 5.01235C5.74132 5.01462 5.49051 5.11979 5.3051 5.3052C5.11969 5.49061 5.01452 5.74142 5.01224 6.00362C5.00997 6.26582 5.11076 6.51842 5.29292 6.70702L10.5859 12L5.29292 17.293C5.11076 17.4816 5.00997 17.7342 5.01224 17.9964C5.01452 18.2586 5.11969 18.5094 5.3051 18.6948C5.49051 18.8802 5.74132 18.9854 6.00352 18.9877C6.26571 18.99 6.51832 18.8892 6.70692 18.707L11.9999 13.414L17.2929 18.707C17.4815 18.8892 17.7341 18.99 17.9963 18.9877C18.2585 18.9854 18.5093 18.8802 18.6947 18.6948C18.8801 18.5094 18.9853 18.2586 18.9876 17.9964C18.9899 17.7342 18.8891 17.4816 18.7069 17.293L13.4139 12L18.7069 6.70702C18.8024 6.61477 18.8786 6.50443 18.931 6.38242C18.9834 6.26042 19.011 6.1292 19.0122 5.99642C19.0133 5.86364 18.988 5.73196 18.9377 5.60907C18.8875 5.48617 18.8132 5.37452 18.7193 5.28062C18.6254 5.18673 18.5138 5.11248 18.3909 5.0622C18.268 5.01192 18.1363 4.98662 18.0035 4.98777C17.8707 4.98892 17.7395 5.01651 17.6175 5.06892C17.4955 5.12133 17.3852 5.19751 17.2929 5.29302L11.9999 10.586Z" fill="#44546F"/>
</svg>
