<svg width="248" height="229" viewBox="0 0 248 229" fill="none" xmlns="http://www.w3.org/2000/svg">
<g clip-path="url(#clip0_15239_18402)">
<path opacity="0.4" d="M126.566 185.772C175.304 185.772 214.813 146.585 214.813 98.2449C214.813 49.905 175.304 10.7177 126.566 10.7177C77.8292 10.7177 38.3199 49.905 38.3199 98.2449C38.3199 146.585 77.8292 185.772 126.566 185.772Z" fill="url(#paint0_radial_15239_18402)"/>
<path d="M40.1209 188.094C39.477 188.144 38.8305 188.04 38.2353 187.791C37.6401 187.543 37.1134 187.157 36.6991 186.665L39.9408 183.45H40.2109C41.5617 183.45 48.2252 182.378 71.0972 164.516C88.9266 150.583 110.898 130.844 132.96 108.963C155.021 87.0807 174.922 65.2882 188.969 47.6041C209.68 21.5245 207.969 16.7016 207.969 16.6123L211.301 13.4863C213.102 15.1833 217.154 19.2917 193.922 48.8545C179.694 66.9852 159.164 89.4922 136.292 112.267C113.419 135.042 90.6375 155.316 72.3579 169.428C52.5474 184.79 44.083 188.094 40.1209 188.094Z" fill="url(#paint1_linear_15239_18402)"/>
<path d="M199.865 165.409C199.494 165.405 199.129 165.315 198.8 165.144C198.471 164.973 198.188 164.727 197.974 164.426C184.737 145.849 160.424 118.43 132.96 91.1891C107.656 66.1813 82.5332 43.8529 63.8934 30.0987C63.3956 29.7405 63.06 29.2025 62.9589 28.6008C62.8578 27.9992 62.9994 27.3823 63.3531 26.8834C63.7435 26.3976 64.3079 26.08 64.9286 25.9968C65.5493 25.9136 66.1784 26.0712 66.6848 26.4368C85.5047 40.2804 110.808 62.6981 136.291 87.8845C163.936 115.304 188.429 142.902 201.756 161.747C202.11 162.246 202.251 162.863 202.15 163.464C202.049 164.066 201.713 164.604 201.216 164.962C200.814 165.228 200.347 165.382 199.865 165.409Z" fill="url(#paint2_linear_15239_18402)"/>
<path d="M209.68 76.9883H209.41C186.538 74.2196 156.282 72.612 123.955 72.612C97.391 72.612 72.0877 73.6837 50.9265 75.6486C50.3194 75.6989 49.7164 75.5125 49.2457 75.1289C48.7749 74.7454 48.4734 74.1949 48.4052 73.5944C48.3528 72.9822 48.538 72.3733 48.9229 71.892C49.3078 71.4106 49.8634 71.0931 50.4763 71.0043C71.8175 69.0394 97.2109 67.9677 123.955 67.9677C156.462 67.9677 186.988 69.5753 209.95 72.344C210.563 72.4328 211.119 72.7503 211.504 73.2317C211.889 73.713 212.074 74.3219 212.021 74.9341C211.955 75.5024 211.679 76.0264 211.247 76.4055C210.815 76.7846 210.257 76.9921 209.68 76.9883Z" fill="url(#paint3_linear_15239_18402)"/>
<path d="M2.84123 87.5273C2.2203 87.5273 1.6248 87.2826 1.18573 86.8471C0.746665 86.4117 0.5 85.821 0.5 85.2051C0.5 81.454 5.09242 78.6852 15.3578 76.2738C23.6422 74.2196 35.8886 72.4333 50.4763 71.0043C51.1023 70.9758 51.7166 71.1796 52.1994 71.5758C52.6821 71.9721 52.9988 72.5325 53.0877 73.1478C53.1123 73.4529 53.0758 73.7599 52.9803 74.051C52.8849 74.3421 52.7323 74.6116 52.5315 74.844C52.3306 75.0764 52.0854 75.2671 51.81 75.4052C51.5346 75.5433 51.2343 75.626 50.9265 75.6486C9.50474 79.5784 5.45261 84.8479 5.18246 85.2944C5.15917 85.8947 4.90226 86.4627 4.46569 86.879C4.02913 87.2954 3.44687 87.5277 2.84123 87.5273Z" fill="url(#paint4_linear_15239_18402)"/>
<path d="M134.941 158.889V155.674C134.941 153.707 134.153 151.822 132.752 150.432C131.35 149.042 129.449 148.26 127.467 148.26C125.5 148.284 123.622 149.075 122.24 150.463C120.858 151.851 120.083 153.723 120.083 155.674V158.889C120.061 161.606 119.282 164.264 117.832 166.57C116.371 168.838 115.591 171.47 115.581 174.161V217.211C115.604 220.346 116.877 223.344 119.12 225.552C121.363 227.761 124.396 229 127.557 229C130.709 229 133.733 227.758 135.962 225.547C138.191 223.336 139.443 220.337 139.443 217.211V174.161C139.433 171.47 138.652 168.838 137.192 166.57C135.742 164.264 134.963 161.606 134.941 158.889Z" fill="#0052CC"/>
<g style="mix-blend-mode:multiply">
<path d="M137.012 166.302C135.66 164.061 134.944 161.5 134.941 158.889V155.674C134.941 153.707 134.153 151.822 132.752 150.432C131.35 149.042 129.449 148.26 127.467 148.26C125.5 148.284 123.622 149.075 122.24 150.463C120.858 151.851 120.083 153.723 120.083 155.674V158.889C120.091 161.473 119.374 164.009 118.012 166.213C121.165 166.75 124.358 167.019 127.557 167.016C130.722 167.004 133.882 166.765 137.012 166.302Z" fill="#B3BAC5"/>
</g>
<path d="M80.7322 141.473C74.5414 135.605 69.5948 128.569 66.1828 120.779C62.7707 112.989 60.962 104.601 60.8628 96.1086C60.7636 87.6157 62.3759 79.1888 65.6051 71.3224C68.8342 63.4561 73.6151 56.3087 79.6672 50.3C85.7193 44.2913 92.9206 39.5423 100.848 36.3316C108.776 33.121 117.271 31.5135 125.834 31.6035C134.396 31.6935 142.855 33.4791 150.712 36.8556C158.569 40.2321 165.668 45.1315 171.59 51.266C177.592 57.1707 182.353 64.1973 185.599 71.9392C188.845 79.6812 190.511 87.9847 190.5 96.3694C190.504 108.985 186.736 121.319 179.672 131.81C172.607 142.301 162.564 150.478 150.813 155.306C139.062 160.135 126.132 161.398 113.657 158.935C101.182 156.473 89.724 150.396 80.7322 141.473Z" fill="url(#paint5_linear_15239_18402)"/>
<path d="M99.7322 55.553C90.1943 61.6298 83.0765 70.7995 79.5922 81.4989C76.1079 92.1984 76.4729 103.765 80.6248 114.228C84.7768 124.69 92.4587 133.401 102.361 138.874C112.263 144.347 123.773 146.245 134.928 144.243C146.083 142.241 156.193 136.464 163.534 127.896C170.875 119.328 174.993 108.501 175.185 97.2584C175.378 86.0163 171.634 75.0559 164.591 66.2456C157.547 57.4353 147.642 51.3206 136.562 48.9438C130.287 47.5828 123.802 47.4661 117.481 48.6004C111.161 49.7347 105.129 52.0975 99.7322 55.553Z" fill="url(#paint6_linear_15239_18402)"/>
<path d="M115.761 143.795C126.495 146.127 137.709 144.804 147.593 140.04C157.477 135.276 165.455 127.349 170.239 117.537C168.528 117.537 166.727 117.537 164.927 117.358C148.898 115.929 138.543 106.819 133.5 102.264C118.462 88.6884 119.543 77.0776 110.268 65.0203C107.399 61.2775 103.967 57.9942 100.092 55.2851L99.7322 55.553C91.5785 60.7318 85.1585 68.1949 81.2859 76.9966C77.4133 85.7982 76.2624 95.5421 77.9791 104.993C79.6958 114.444 84.2029 123.177 90.929 130.085C97.6551 136.993 106.297 141.764 115.761 143.795Z" fill="url(#paint7_linear_15239_18402)"/>
<g style="mix-blend-mode:multiply" opacity="0.1">
<path d="M153.851 153.977C138.813 141.383 121.884 125.754 104.955 108.963C101.893 106.015 99.0119 103.068 96.0403 100.121C99.0119 97.0839 101.893 94.1365 104.955 91.1892C123.955 72.2547 142.955 55.0172 159.254 41.7094C157.813 40.8163 156.282 40.0125 154.841 39.298C138.723 52.5164 120.263 69.3966 101.623 87.8846L92.7986 96.7266C84.5142 88.1525 76.5901 79.6677 69.2062 71.4509C68.9691 71.1936 68.6746 70.9951 68.3462 70.871C68.0178 70.7469 67.6647 70.7008 67.3152 70.7363L65.6943 74.5768C73.1683 82.883 81.1825 91.4571 89.5569 100.031C81.9029 107.98 74.609 115.75 67.8555 123.253C68.4858 124.682 69.2962 126.2 70.1067 127.629C77.1304 119.859 84.7844 111.642 92.7986 103.425L101.623 112.267C118.012 128.522 134.4 143.616 148.988 156.031L153.851 153.977Z" fill="#091E42"/>
</g>
<path d="M36.6991 186.665C34.8981 184.968 30.846 180.86 54.0782 151.297C68.3057 133.167 88.8365 110.66 111.709 87.8846C134.581 65.1096 157.363 44.8354 175.642 30.7239C205.448 7.68099 209.59 11.7001 211.301 13.4864L208.059 16.7017C208.059 16.791 207.969 16.7017 207.789 16.7017C207.609 16.7017 199.775 17.7734 176.903 35.6361C159.073 49.5691 137.102 69.3074 115.04 91.1892C92.9787 113.071 73.0782 134.864 59.0308 152.548C38.3199 178.627 40.0308 183.45 40.0308 183.539L36.6991 186.665Z" fill="url(#paint8_linear_15239_18402)"/>
<path d="M123.955 102.353C91.5379 102.353 61.0118 100.835 38.0498 98.0663C0.5 93.422 0.5 87.6166 0.5 85.2051C0.5 84.5893 0.746665 83.9986 1.18573 83.5631C1.6248 83.1276 2.2203 82.883 2.84123 82.883C3.46217 82.883 4.05767 83.1276 4.49673 83.5631C4.9358 83.9986 5.18246 84.5893 5.18246 85.2051C5.18246 85.2051 7.61374 89.7601 40.6611 93.6899C63.173 96.28 92.7986 97.7984 123.955 97.7984C153.4 97.7984 181.675 96.4587 203.737 94.0472C204.044 94.012 204.356 94.0372 204.653 94.1214C204.951 94.2056 205.229 94.3471 205.472 94.5379C205.714 94.7286 205.916 94.9649 206.067 95.2331C206.217 95.5014 206.313 95.7964 206.348 96.1014C206.384 96.4063 206.358 96.7152 206.274 97.0104C206.189 97.3056 206.046 97.5814 205.854 97.8219C205.661 98.0624 205.423 98.263 205.153 98.4122C204.882 98.5614 204.585 98.6563 204.277 98.6915C182.036 101.103 153.581 102.353 123.955 102.353Z" fill="#FFAB00"/>
<path d="M204.007 98.6915C203.43 98.6953 202.872 98.4878 202.44 98.1087C202.008 97.7296 201.732 97.2056 201.666 96.6373C201.614 96.0251 201.799 95.4162 202.184 94.9348C202.569 94.4535 203.124 94.136 203.737 94.0472C237.325 90.4746 242.187 86.009 242.728 85.2051C243.268 84.4013 237.865 80.4715 209.41 76.9883C209.102 76.9551 208.803 76.8614 208.532 76.7128C208.26 76.5643 208.021 76.3636 207.829 76.1227C207.636 75.8817 207.493 75.6052 207.409 75.3092C207.325 75.0131 207.301 74.7035 207.339 74.3982C207.428 73.7903 207.749 73.2392 208.234 72.8574C208.719 72.4757 209.333 72.292 209.95 72.344C247.5 76.9883 247.5 82.7043 247.5 85.2051C247.5 94.0472 217.154 97.2625 204.277 98.6915H204.007Z" fill="url(#paint9_linear_15239_18402)"/>
<path d="M77.5806 75.3807C77.2537 75.3779 76.9313 75.3046 76.6358 75.1658C76.3404 75.027 76.0789 74.826 75.8697 74.5768C62.1825 59.3935 51.2868 45.9072 44.2631 35.5468C35.7986 23.2215 33.5474 16.6123 36.6991 13.4864C39.8508 10.3604 44.8034 10.2711 66.6849 26.4368C67.1685 26.8082 67.4864 27.3526 67.5705 27.9535C67.6547 28.5544 67.4984 29.1641 67.1351 29.6521C66.9573 29.8996 66.7305 30.1086 66.4685 30.2661C66.2065 30.4236 65.9148 30.5264 65.6113 30.5682C65.3078 30.61 64.9989 30.59 64.7035 30.5092C64.4081 30.4285 64.1325 30.2888 63.8934 30.0987C45.6138 16.6123 40.8413 16.6123 40.0309 16.791C39.2204 16.9696 39.9408 21.1673 49.0356 34.2964C55.9692 44.2102 66.4147 57.0714 79.2915 71.4509C79.5007 71.6785 79.6622 71.9451 79.7665 72.2352C79.8708 72.5253 79.9159 72.833 79.8991 73.1406C79.8823 73.4481 79.8041 73.7493 79.6688 74.0265C79.5336 74.3038 79.3441 74.5515 79.1114 74.7555C78.9133 74.9585 78.6751 75.1188 78.4117 75.2264C78.1483 75.3339 77.8654 75.3865 77.5806 75.3807Z" fill="url(#paint10_linear_15239_18402)"/>
<path d="M207.879 188.094C203.917 188.094 195.453 184.79 175.642 169.428C157.363 155.316 134.671 134.953 111.709 112.267C98.8317 99.406 86.7654 86.7235 75.8696 74.5768C75.6605 74.3492 75.499 74.0826 75.3947 73.7925C75.2904 73.5024 75.2453 73.1946 75.2621 72.8871C75.2788 72.5796 75.3571 72.2784 75.4923 72.0012C75.6276 71.7239 75.817 71.4761 76.0497 71.2722C76.5086 70.8805 77.1025 70.6804 77.7069 70.7137C78.3113 70.747 78.8792 71.0112 79.2915 71.4508C90.1872 83.5975 102.163 96.1907 115.04 108.963C137.102 130.844 159.073 150.583 176.903 164.516C203.197 185.058 208.059 183.361 208.149 183.361C208.359 183.145 208.611 182.973 208.89 182.855C209.168 182.738 209.468 182.677 209.77 182.677C210.073 182.677 210.372 182.738 210.651 182.855C210.929 182.973 211.181 183.145 211.391 183.361C211.803 183.819 212.023 184.417 212.007 185.031C211.99 185.645 211.738 186.23 211.301 186.665C210.887 187.157 210.36 187.543 209.765 187.791C209.17 188.04 208.523 188.144 207.879 188.094Z" fill="url(#paint11_linear_15239_18402)"/>
<path d="M183.386 17.4161H170.149C167.307 17.4161 164.582 18.5359 162.572 20.5291C160.563 22.5223 159.434 25.2257 159.434 28.0445C159.434 30.8633 160.563 33.5666 162.572 35.5598C164.582 37.553 167.307 38.6728 170.149 38.6728H170.78C172.186 38.6612 173.557 39.11 174.68 39.9496C175.804 40.7893 176.616 41.9729 176.993 43.3171H177.173C177.549 41.9729 178.362 40.7893 179.485 39.9496C180.609 39.11 181.98 38.6612 183.386 38.6728C184.801 38.6846 186.204 38.4184 187.515 37.8895C188.825 37.3607 190.017 36.5797 191.022 35.5916C192.026 34.6035 192.824 33.4278 193.368 32.1325C193.912 30.8371 194.192 29.4477 194.192 28.0445C194.192 26.6412 193.912 25.2518 193.368 23.9564C192.824 22.6611 192.026 21.4855 191.022 20.4974C190.017 19.5092 188.825 18.7282 187.515 18.1994C186.204 17.6706 184.801 17.4044 183.386 17.4161Z" fill="url(#paint12_linear_15239_18402)"/>
<path d="M55.302 88.3811L28.8608 82.4709C28.3272 82.3516 27.797 82.684 27.6768 83.2134L21.716 109.448C21.5958 109.977 21.9309 110.503 22.4645 110.622L48.9057 116.532C49.4394 116.652 49.9695 116.319 50.0897 115.79L56.0505 89.5555C56.1708 89.0262 55.8356 88.5004 55.302 88.3811Z" fill="#FFAB00"/>
<path d="M47.1261 112.491L51.9564 91.2316L30.5312 86.4425L25.7008 107.702L47.1261 112.491Z" fill="url(#paint13_linear_15239_18402)"/>
<path d="M29.1351 103.514L39.8508 96.8159L46.6043 107.444L29.1351 103.514Z" fill="#FFAB00"/>
<path d="M34.538 96.9946C36.0299 96.9946 37.2394 95.7949 37.2394 94.3151C37.2394 92.8354 36.0299 91.6357 34.538 91.6357C33.046 91.6357 31.8365 92.8354 31.8365 94.3151C31.8365 95.7949 33.046 96.9946 34.538 96.9946Z" fill="#FFAB00"/>
<path d="M218.595 56.6248L205.268 56.1782L204.457 85.9196L227.059 86.5448L227.6 66.1813L218.595 56.6248Z" fill="url(#paint14_linear_15239_18402)"/>
<path d="M218.325 65.8241L227.6 66.1814L218.595 56.6248L218.325 65.8241Z" fill="#FFE380"/>
<path d="M162.135 181.575C161.083 181.398 160.14 180.827 159.503 179.978C158.865 179.13 158.582 178.07 158.713 177.02L161.415 157.728C161.571 156.692 162.129 155.757 162.97 155.123C163.811 154.489 164.869 154.206 165.917 154.334L185.367 157.013C185.885 157.074 186.383 157.241 186.833 157.502C187.282 157.763 187.672 158.114 187.979 158.532C188.32 158.936 188.569 159.409 188.709 159.917C188.848 160.426 188.876 160.959 188.789 161.479L186.088 180.771C186.021 181.289 185.852 181.789 185.588 182.241C185.325 182.693 184.974 183.089 184.555 183.405C184.135 183.721 183.657 183.951 183.147 184.081C182.637 184.212 182.106 184.24 181.585 184.165L162.135 181.575Z" fill="#B2D4FF"/>
<path d="M185.12 159.194L165.761 156.564C164.824 156.436 163.962 157.086 163.833 158.015L161.178 177.243C161.05 178.171 161.704 179.027 162.641 179.154L182 181.785C182.936 181.912 183.799 181.262 183.927 180.334L186.583 161.106C186.711 160.177 186.056 159.321 185.12 159.194Z" fill="#0065FF"/>
<path d="M169.879 174.519L165.827 168.981C165.737 168.845 165.697 168.681 165.713 168.519C165.729 168.356 165.801 168.204 165.917 168.088L167.358 167.106C167.482 167.023 167.631 166.987 167.78 167.003C167.928 167.019 168.066 167.087 168.168 167.195L170.96 170.946L180.145 164.784C180.279 164.711 180.435 164.689 180.584 164.722C180.733 164.755 180.865 164.84 180.955 164.962L181.946 166.391C182.019 166.524 182.041 166.679 182.008 166.827C181.975 166.975 181.889 167.105 181.765 167.195L170.69 174.697C170.552 174.754 170.401 174.767 170.256 174.736C170.111 174.704 169.979 174.628 169.879 174.519Z" fill="#F4F5F7"/>
<path d="M91.3578 165.052C91.8989 167.477 93.1271 169.698 94.8978 171.454C96.6685 173.21 98.9081 174.429 101.353 174.965C98.9033 175.492 96.6582 176.707 94.8858 178.465C93.1134 180.223 91.8887 182.449 91.3578 184.879C90.7898 182.452 89.5415 180.233 87.7571 178.479C85.9727 176.725 83.7247 175.507 81.2725 174.965C83.7202 174.414 85.9629 173.193 87.7457 171.44C89.5285 169.688 90.78 167.474 91.3578 165.052Z" fill="#79E2F2"/>
<path d="M102.614 189.881C102.85 190.895 103.374 191.821 104.124 192.549C104.874 193.277 105.819 193.777 106.846 193.989C105.821 194.237 104.884 194.76 104.137 195.5C103.391 196.241 102.864 197.17 102.614 198.187C102.38 197.177 101.87 196.25 101.139 195.509C100.408 194.769 99.4848 194.243 98.4716 193.989C99.4872 193.772 100.418 193.269 101.153 192.54C101.887 191.811 102.395 190.888 102.614 189.881Z" fill="#79E2F2"/>
<path d="M156.102 15.3619C153.657 14.8252 151.417 13.607 149.647 11.8508C147.876 10.0945 146.648 7.87317 146.107 5.44812C145.576 7.87785 144.351 10.1047 142.579 11.8626C140.806 13.6206 138.561 14.8354 136.111 15.3619C138.547 15.9184 140.776 17.1431 142.543 18.8962C144.311 20.6492 145.545 22.8599 146.107 25.2757C146.677 22.8644 147.915 20.6589 149.681 18.9074C151.447 17.1559 153.671 15.9281 156.102 15.3619Z" fill="#79E2F2"/>
<path d="M131.069 4.19774C130.056 3.94431 129.133 3.41821 128.402 2.67749C127.671 1.93677 127.16 1.01021 126.927 0V0C126.659 1.00849 126.126 1.92841 125.382 2.66587C124.639 3.40334 123.711 3.93194 122.694 4.19774C123.713 4.4295 124.647 4.93579 125.394 5.66075C126.141 6.38571 126.671 7.30117 126.927 8.30616C127.146 7.29883 127.653 6.3755 128.388 5.64682C129.122 4.91814 130.053 4.41502 131.069 4.19774Z" fill="#79E2F2"/>
</g>
<defs>
<radialGradient id="paint0_radial_15239_18402" cx="0" cy="0" r="1" gradientUnits="userSpaceOnUse" gradientTransform="translate(126.539 98.2003) scale(88.2284 87.5094)">
<stop offset="0.11" stop-color="#79E2F2"/>
<stop offset="0.19" stop-color="#79E2F2" stop-opacity="0.96"/>
<stop offset="0.32" stop-color="#79E2F2" stop-opacity="0.86"/>
<stop offset="0.48" stop-color="#79E2F2" stop-opacity="0.69"/>
<stop offset="0.67" stop-color="#79E2F2" stop-opacity="0.46"/>
<stop offset="0.88" stop-color="#79E2F2" stop-opacity="0.17"/>
<stop offset="1" stop-color="#79E2F2" stop-opacity="0"/>
</radialGradient>
<linearGradient id="paint1_linear_15239_18402" x1="36.6721" y1="100.79" x2="212.76" y2="100.79" gradientUnits="userSpaceOnUse">
<stop stop-color="#00B8D9"/>
<stop offset="1" stop-color="#00B8D9" stop-opacity="0"/>
</linearGradient>
<linearGradient id="paint2_linear_15239_18402" x1="62.9119" y1="95.6727" x2="202.188" y2="95.6727" gradientUnits="userSpaceOnUse">
<stop stop-color="#2684FF" stop-opacity="0"/>
<stop offset="0.15" stop-color="#2684FF" stop-opacity="0.22"/>
<stop offset="0.35" stop-color="#2684FF" stop-opacity="0.49"/>
<stop offset="0.53" stop-color="#2684FF" stop-opacity="0.71"/>
<stop offset="0.69" stop-color="#2684FF" stop-opacity="0.87"/>
<stop offset="0.82" stop-color="#2684FF" stop-opacity="0.96"/>
<stop offset="0.89" stop-color="#2684FF"/>
</linearGradient>
<linearGradient id="paint3_linear_15239_18402" x1="48.3962" y1="72.5048" x2="212.012" y2="72.5048" gradientUnits="userSpaceOnUse">
<stop stop-color="#FFAB00" stop-opacity="0"/>
<stop offset="0.1" stop-color="#FFAB00" stop-opacity="0.14"/>
<stop offset="0.37" stop-color="#FFAB00" stop-opacity="0.5"/>
<stop offset="0.6" stop-color="#FFAB00" stop-opacity="0.77"/>
<stop offset="0.76" stop-color="#FFAB00" stop-opacity="0.94"/>
<stop offset="0.84" stop-color="#FFAB00"/>
</linearGradient>
<linearGradient id="paint4_linear_15239_18402" x1="0.5" y1="1537.98" x2="3071.53" y2="1537.98" gradientUnits="userSpaceOnUse">
<stop stop-color="#FFAB00" stop-opacity="0"/>
<stop offset="0.1" stop-color="#FFAB00" stop-opacity="0.14"/>
<stop offset="0.37" stop-color="#FFAB00" stop-opacity="0.5"/>
<stop offset="0.6" stop-color="#FFAB00" stop-opacity="0.77"/>
<stop offset="0.76" stop-color="#FFAB00" stop-opacity="0.94"/>
<stop offset="0.84" stop-color="#FFAB00"/>
</linearGradient>
<linearGradient id="paint5_linear_15239_18402" x1="80.7142" y1="141.473" x2="170.9" y2="50.5548" gradientUnits="userSpaceOnUse">
<stop offset="0.11" stop-color="#0065FF"/>
<stop offset="0.22" stop-color="#096BFF"/>
<stop offset="0.41" stop-color="#227CFF"/>
<stop offset="0.65" stop-color="#4998FF"/>
<stop offset="0.66" stop-color="#4C9AFF"/>
<stop offset="0.72" stop-color="#57A0FF"/>
<stop offset="0.83" stop-color="#75B1FF"/>
<stop offset="0.97" stop-color="#A5CDFF"/>
<stop offset="1" stop-color="#B2D4FF"/>
</linearGradient>
<linearGradient id="paint6_linear_15239_18402" x1="91.5649" y1="130.71" x2="160.227" y2="61.4843" gradientUnits="userSpaceOnUse">
<stop stop-color="#00B8D9"/>
<stop offset="0.06" stop-color="#14BFDD"/>
<stop offset="0.23" stop-color="#44CFE8"/>
<stop offset="0.39" stop-color="#6CDDF0"/>
<stop offset="0.56" stop-color="#8BE7F7"/>
<stop offset="0.71" stop-color="#A1EFFB"/>
<stop offset="0.86" stop-color="#AEF3FE"/>
<stop offset="1" stop-color="#B3F5FF"/>
</linearGradient>
<linearGradient id="paint7_linear_15239_18402" x1="35.8535" y1="83.8051" x2="193.691" y2="117.905" gradientUnits="userSpaceOnUse">
<stop stop-color="white"/>
<stop offset="0.69" stop-color="white" stop-opacity="0.1"/>
</linearGradient>
<linearGradient id="paint8_linear_15239_18402" x1="35.2403" y1="99.3614" x2="211.319" y2="99.3614" gradientUnits="userSpaceOnUse">
<stop stop-color="#00B8D9"/>
<stop offset="0.74" stop-color="#79E2F2"/>
<stop offset="0.75" stop-color="#72E0F1" stop-opacity="0.94"/>
<stop offset="0.82" stop-color="#4AD2E8" stop-opacity="0.61"/>
<stop offset="0.89" stop-color="#2AC7E2" stop-opacity="0.35"/>
<stop offset="0.94" stop-color="#13BFDD" stop-opacity="0.16"/>
<stop offset="0.98" stop-color="#05BADA" stop-opacity="0.04"/>
<stop offset="1" stop-color="#00B8D9" stop-opacity="0"/>
</linearGradient>
<linearGradient id="paint9_linear_15239_18402" x1="224.574" y1="98.6915" x2="224.574" y2="72.3618" gradientUnits="userSpaceOnUse">
<stop offset="0.16" stop-color="#FFAB00"/>
<stop offset="0.24" stop-color="#FFAB00" stop-opacity="0.94"/>
<stop offset="0.4" stop-color="#FFAB00" stop-opacity="0.77"/>
<stop offset="0.63" stop-color="#FFAB00" stop-opacity="0.5"/>
<stop offset="0.9" stop-color="#FFAB00" stop-opacity="0.14"/>
<stop offset="1" stop-color="#FFAB00" stop-opacity="0"/>
</linearGradient>
<linearGradient id="paint10_linear_15239_18402" x1="66.3517" y1="20.8994" x2="50.2073" y2="65.6143" gradientUnits="userSpaceOnUse">
<stop offset="0.11" stop-color="#2684FF"/>
<stop offset="0.21" stop-color="#2684FF" stop-opacity="0.89"/>
<stop offset="0.43" stop-color="#2684FF" stop-opacity="0.6"/>
<stop offset="0.76" stop-color="#2684FF" stop-opacity="0.15"/>
<stop offset="0.86" stop-color="#2684FF" stop-opacity="0"/>
</linearGradient>
<linearGradient id="paint11_linear_15239_18402" x1="75.2393" y1="129.415" x2="212.03" y2="129.415" gradientUnits="userSpaceOnUse">
<stop offset="0.11" stop-color="#4C9AFF"/>
<stop offset="0.19" stop-color="#559FFF"/>
<stop offset="0.33" stop-color="#6EADFF"/>
<stop offset="0.5" stop-color="#95C4FF"/>
<stop offset="0.6" stop-color="#B2D4FF"/>
<stop offset="0.65" stop-color="#B2D4FF" stop-opacity="0.92"/>
<stop offset="0.74" stop-color="#B2D4FF" stop-opacity="0.7"/>
<stop offset="0.87" stop-color="#B2D4FF" stop-opacity="0.35"/>
<stop offset="1" stop-color="#B2D4FF" stop-opacity="0"/>
</linearGradient>
<linearGradient id="paint12_linear_15239_18402" x1="159.398" y1="30.4113" x2="194.156" y2="30.4113" gradientUnits="userSpaceOnUse">
<stop stop-color="#79E2F2"/>
<stop offset="0.06" stop-color="#7FE4F3"/>
<stop offset="0.44" stop-color="#9BEDFA"/>
<stop offset="0.76" stop-color="#ADF3FE"/>
<stop offset="1" stop-color="#B3F5FF"/>
</linearGradient>
<linearGradient id="paint13_linear_15239_18402" x1="24.8199" y1="101.241" x2="53.1428" y2="96.4499" gradientUnits="userSpaceOnUse">
<stop stop-color="#FFC400"/>
<stop offset="0.1" stop-color="#FFCB1E"/>
<stop offset="0.24" stop-color="#FFD441"/>
<stop offset="0.38" stop-color="#FFDA5D"/>
<stop offset="0.52" stop-color="#FFDF70"/>
<stop offset="0.67" stop-color="#FFE27C"/>
<stop offset="0.82" stop-color="#FFE380"/>
</linearGradient>
<linearGradient id="paint14_linear_15239_18402" x1="204.412" y1="71.3883" x2="227.636" y2="71.3883" gradientUnits="userSpaceOnUse">
<stop stop-color="#FFC400"/>
<stop offset="0.31" stop-color="#FFC502"/>
<stop offset="0.47" stop-color="#FFC70A"/>
<stop offset="0.61" stop-color="#FFCA18"/>
<stop offset="0.73" stop-color="#FFCF2C"/>
<stop offset="0.83" stop-color="#FFD545"/>
<stop offset="0.93" stop-color="#FFDC63"/>
<stop offset="1" stop-color="#FFE380"/>
</linearGradient>
<clipPath id="clip0_15239_18402">
<rect width="247" height="229" fill="white" transform="translate(0.5)"/>
</clipPath>
</defs>
</svg>
