<svg width="138" height="136" viewBox="0 0 138 136" fill="none" xmlns="http://www.w3.org/2000/svg">
<g clip-path="url(#clip0_951_45847)">
<rect width="138" height="136" fill="white" fill-opacity="0.01"/>
<path d="M105.628 49.1146H45.9172C34.1117 49.1146 37.4048 38.7539 25.7857 38.7539H4.10086C3.00757 38.7711 1.96459 39.2416 1.19726 40.0637C0.429938 40.8857 -0.000121769 41.9934 2.58625e-08 43.1474L2.58625e-08 136H109.791V53.4424C109.791 52.8685 109.683 52.3003 109.473 51.7709C109.263 51.2415 108.955 50.7615 108.568 50.3587C108.181 49.956 107.721 49.6386 107.217 49.425C106.712 49.2114 106.172 49.1059 105.628 49.1146Z" fill="#3384FF"/>
<path d="M0 136H73.8154L29.8244 65.4424C21.6719 65.9979 13.8715 69.1536 7.4561 74.4916C4.64215 76.8684 2.13544 79.6241 0 82.6883L0 136Z" fill="#0065FF"/>
<path d="M43.7425 107.738H20.5664V110.361H43.7425V107.738Z" fill="#0065FF"/>
<path d="M57.5354 19.6724H29.3887V22.2953H57.5354V19.6724Z" fill="#6BD5E5"/>
<path d="M74.2503 9.83594H20.5664V12.4589H74.2503V9.83594Z" fill="#0065FF"/>
<path d="M76.6722 39.3442H48.5254V41.9672H76.6722V39.3442Z" fill="#0065FF"/>
<path d="M35.7893 0H20.5664V2.62295H35.7893V0Z" fill="#99C1FF"/>
<path d="M44.6115 29.5083H29.3887V32.1313H44.6115V29.5083Z" fill="#99C1FF"/>
<path d="M15.3467 0H11.8672V2.62295H15.3467V0Z" fill="#CFD4DB"/>
<path d="M15.3467 9.83594H11.8672V12.4589H15.3467V9.83594Z" fill="#CFD4DB"/>
<path d="M15.3467 19.6724H11.8672V22.2953H15.3467V19.6724Z" fill="#CFD4DB"/>
<path d="M15.3467 29.5083H11.8672V32.1313H15.3467V29.5083Z" fill="#CFD4DB"/>
<path d="M15.3467 38.8853H11.8672V41.5082H15.3467V38.8853Z" fill="#FAFBFC"/>
<path d="M15.3467 49.2461H11.8672V51.869H15.3467V49.2461Z" fill="#FAFBFC"/>
<path d="M15.3467 59.082H11.8672V61.705H15.3467V59.082Z" fill="#FAFBFC"/>
<path d="M15.3467 68.918H11.8672V71.5409H15.3467V68.918Z" fill="#FAFBFC"/>
<path d="M15.3467 78.7539H11.8672V81.3769H15.3467V78.7539Z" fill="#FAFBFC"/>
<path d="M15.3467 88.5903H11.8672V91.2133H15.3467V88.5903Z" fill="#FAFBFC"/>
<path d="M15.3467 98.4263H11.8672V101.049H15.3467V98.4263Z" fill="#FAFBFC"/>
<path d="M15.3467 108.262H11.8672V110.885H15.3467V108.262Z" fill="#FAFBFC"/>
<path d="M15.3467 118.098H11.8672V120.721H15.3467V118.098Z" fill="#FAFBFC"/>
<path d="M99.7873 49.2461H47.4082V51.869H99.7873V49.2461Z" fill="#FDC150"/>
<path d="M42.1257 49.2461H28.6426V51.869H42.1257V49.2461Z" fill="#3DC7DC"/>
<path d="M99.7861 58.0981H59.1504V60.7211H99.7861V58.0981Z" fill="#0065FF"/>
<path d="M53.8691 58.0981H28.6426V60.7211H53.8691V58.0981Z" fill="#FDC150"/>
<path d="M91.3364 68.918H20.752V71.5409H91.3364V68.918Z" fill="#3DC7DC"/>
<path d="M73.9392 78.7539H21.8086V81.3769H73.9392V78.7539Z" fill="#3DC7DC"/>
<path d="M61.0158 98.4263H20.5664V101.049H61.0158V98.4263Z" fill="#FAFBFC"/>
<path d="M74.1878 88.5903H51.0117V91.2133H74.1878V88.5903Z" fill="#0065FF"/>
<path d="M99.7867 29.5083H47.9668V32.1313H99.7867V29.5083Z" fill="#FDC150"/>
<path d="M109.791 136H0L29.0167 67.2784C29.2518 66.737 29.6276 66.277 30.1006 65.952C30.5735 65.627 31.1241 65.4503 31.6884 65.4424H135.018C135.511 65.4432 135.997 65.5734 136.431 65.8212C136.865 66.069 137.235 66.4267 137.506 66.8621C137.777 67.2976 137.941 67.7973 137.984 68.3163C138.027 68.8353 137.947 69.3574 137.751 69.8358L109.791 136Z" fill="#66A3FF"/>
<path d="M83.2036 117.544C96.4251 106.876 101.872 90.9506 95.3688 81.9743C88.866 72.9981 72.8761 74.3697 59.6546 85.0379C46.433 95.7062 40.9865 111.631 47.4893 120.607C53.9922 129.584 69.982 128.212 83.2036 117.544Z" fill="#3384FF"/>
<path d="M58.0335 111.935C57.82 111.925 57.612 111.86 57.4279 111.746C57.2437 111.631 57.0889 111.471 56.9772 111.279L51.6958 102.033C51.618 101.891 51.5674 101.734 51.5472 101.571C51.5269 101.409 51.5373 101.244 51.5777 101.085C51.6181 100.927 51.6878 100.778 51.7827 100.648C51.8776 100.518 51.9959 100.41 52.1307 100.328L65.1789 91.0821C65.4508 90.8821 65.7869 90.8043 66.1131 90.8658C66.4394 90.9272 66.7292 91.123 66.9187 91.41C67.1082 91.6969 67.1819 92.0516 67.1236 92.3959C67.0654 92.7402 66.8799 93.046 66.608 93.246L54.4918 101.771L59.0898 109.967C59.1777 110.112 59.2363 110.274 59.262 110.444C59.2876 110.613 59.2798 110.787 59.239 110.953C59.1981 111.119 59.1252 111.275 59.0246 111.41C58.9241 111.545 58.7982 111.657 58.6548 111.738C58.4724 111.871 58.255 111.939 58.0335 111.935Z" fill="#0065FF"/>
<path d="M76.4264 111.934C76.227 111.932 76.0312 111.877 75.8573 111.774C75.6835 111.671 75.5373 111.523 75.4323 111.344C75.3375 111.202 75.2704 111.042 75.2347 110.873C75.199 110.703 75.1955 110.528 75.2244 110.358C75.2533 110.187 75.314 110.024 75.403 109.878C75.492 109.732 75.6076 109.606 75.743 109.508L87.8591 100.983L83.2612 92.8523C83.1721 92.7026 83.1125 92.5354 83.0862 92.3609C83.0598 92.1863 83.0672 92.0079 83.1078 91.8364C83.1484 91.6649 83.2215 91.5038 83.3226 91.3629C83.4237 91.2219 83.5507 91.104 83.6961 91.0162C83.9805 90.8627 84.3084 90.8247 84.6176 90.9093C84.9268 90.9939 85.1958 91.1953 85.3737 91.4752L90.593 100.721C90.759 101.01 90.8128 101.355 90.7434 101.685C90.6739 102.015 90.4865 102.304 90.2202 102.492L77.172 111.672C76.9592 111.847 76.6961 111.939 76.4264 111.934Z" fill="#0065FF"/>
<path d="M62.1977 116C61.9281 116.005 61.6649 115.912 61.4521 115.738C61.3143 115.64 61.1974 115.513 61.1091 115.365C61.0208 115.217 60.963 115.051 60.9396 114.878C60.9162 114.705 60.9275 114.528 60.973 114.36C61.0185 114.192 61.097 114.036 61.2035 113.901L79.6574 87.2785C79.7553 87.1407 79.878 87.0246 80.0184 86.9369C80.1588 86.8491 80.3142 86.7914 80.4758 86.7671C80.6374 86.7427 80.8019 86.7522 80.96 86.7949C81.118 86.8377 81.2666 86.9129 81.3972 87.0162C81.5277 87.1195 81.6377 87.249 81.7208 87.3972C81.804 87.5454 81.8587 87.7094 81.8817 87.8799C81.9048 88.0504 81.8959 88.224 81.8553 88.3909C81.8148 88.5577 81.7436 88.7145 81.6457 88.8523L63.1918 115.475C63.0729 115.635 62.9222 115.764 62.7503 115.855C62.5785 115.945 62.3898 115.995 62.1977 116Z" fill="#0065FF"/>
</g>
<defs>
<clipPath id="clip0_951_45847">
<rect width="138" height="136" fill="white"/>
</clipPath>
</defs>
</svg>
