<svg width="24" height="24" viewBox="0 0 24 24" fill="none" xmlns="http://www.w3.org/2000/svg">
<path fill-rule="evenodd" clip-rule="evenodd" d="M11.94 12C10.7767 13.209 10.1278 14.8222 10.13 16.5C10.13 18.126 10.727 19.612 11.713 20.752C8.161 21.448 3 20.68 3 18.446V14C3 12.895 3.902 12 5.009 12H11.939H11.94ZM9 11C7.93913 11 6.92172 10.5786 6.17157 9.82843C5.42143 9.07828 5 8.06087 5 7C5 5.93913 5.42143 4.92172 6.17157 4.17157C6.92172 3.42143 7.93913 3 9 3C10.0609 3 11.0783 3.42143 11.8284 4.17157C12.5786 4.92172 13 5.93913 13 7C13 8.06087 12.5786 9.07828 11.8284 9.82843C11.0783 10.5786 10.0609 11 9 11ZM16.5 22C15.0413 22 13.6424 21.4205 12.6109 20.3891C11.5795 19.3576 11 17.9587 11 16.5C11 15.0413 11.5795 13.6424 12.6109 12.6109C13.6424 11.5795 15.0413 11 16.5 11C17.9587 11 19.3576 11.5795 20.3891 12.6109C21.4205 13.6424 22 15.0413 22 16.5C22 17.9587 21.4205 19.3576 20.3891 20.3891C19.3576 21.4205 17.9587 22 16.5 22ZM16.5 20C16.9596 20 17.4148 19.9095 17.8394 19.7336C18.264 19.5577 18.6499 19.2999 18.9749 18.9749C19.2999 18.6499 19.5577 18.264 19.7336 17.8394C19.9095 17.4148 20 16.9596 20 16.5C20 16.0404 19.9095 15.5852 19.7336 15.1606C19.5577 14.736 19.2999 14.3501 18.9749 14.0251C18.6499 13.7001 18.264 13.4423 17.8394 13.2664C17.4148 13.0905 16.9596 13 16.5 13C15.5717 13 14.6815 13.3687 14.0251 14.0251C13.3687 14.6815 13 15.5717 13 16.5C13 17.4283 13.3687 18.3185 14.0251 18.9749C14.6815 19.6313 15.5717 20 16.5 20Z" fill="#ffff"/>
</svg>
