<svg width="22" height="18" viewBox="0 0 22 18" fill="none" xmlns="http://www.w3.org/2000/svg">
<path d="M11.3 8.77078C11.8336 8.30892 12.2616 7.73767 12.5549 7.0958C12.8482 6.45394 13 5.75649 13 5.05078C13 3.7247 12.4732 2.45293 11.5355 1.51525C10.5979 0.577566 9.32608 0.0507814 8 0.0507814C6.67392 0.0507814 5.40215 0.577566 4.46447 1.51525C3.52678 2.45293 3 3.7247 3 5.05078C2.99999 5.75649 3.1518 6.45394 3.44513 7.0958C3.73845 7.73767 4.16642 8.30892 4.7 8.77078C3.30014 9.40467 2.11247 10.4283 1.27898 11.7193C0.445495 13.0103 0.00147185 14.5141 0 16.0508C0 16.316 0.105357 16.5704 0.292893 16.7579C0.48043 16.9454 0.734784 17.0508 1 17.0508C1.26522 17.0508 1.51957 16.9454 1.70711 16.7579C1.89464 16.5704 2 16.316 2 16.0508C2 14.4595 2.63214 12.9334 3.75736 11.8081C4.88258 10.6829 6.4087 10.0508 8 10.0508C9.5913 10.0508 11.1174 10.6829 12.2426 11.8081C13.3679 12.9334 14 14.4595 14 16.0508C14 16.316 14.1054 16.5704 14.2929 16.7579C14.4804 16.9454 14.7348 17.0508 15 17.0508C15.2652 17.0508 15.5196 16.9454 15.7071 16.7579C15.8946 16.5704 16 16.316 16 16.0508C15.9985 14.5141 15.5545 13.0103 14.721 11.7193C13.8875 10.4283 12.6999 9.40467 11.3 8.77078ZM8 8.05078C7.40666 8.05078 6.82664 7.87483 6.33329 7.54519C5.83994 7.21555 5.45542 6.74701 5.22836 6.19883C5.0013 5.65065 4.94189 5.04745 5.05764 4.46551C5.1734 3.88357 5.45912 3.34902 5.87868 2.92946C6.29824 2.5099 6.83279 2.22418 7.41473 2.10843C7.99667 1.99267 8.59987 2.05208 9.14805 2.27914C9.69623 2.50621 10.1648 2.89072 10.4944 3.38407C10.8241 3.87742 11 4.45744 11 5.05078C11 5.84643 10.6839 6.60949 10.1213 7.1721C9.55871 7.73471 8.79565 8.05078 8 8.05078ZM17.74 8.37078C18.38 7.65011 18.798 6.75984 18.9438 5.80712C19.0896 4.8544 18.9569 3.87986 18.5618 3.00078C18.1666 2.12171 17.5258 1.37558 16.7165 0.852204C15.9071 0.328831 14.9638 0.0505236 14 0.0507814C13.7348 0.0507814 13.4804 0.156138 13.2929 0.343675C13.1054 0.531211 13 0.785565 13 1.05078C13 1.316 13.1054 1.57035 13.2929 1.75789C13.4804 1.94542 13.7348 2.05078 14 2.05078C14.7956 2.05078 15.5587 2.36685 16.1213 2.92946C16.6839 3.49207 17 4.25513 17 5.05078C16.9986 5.57602 16.8593 6.09168 16.5961 6.5462C16.3328 7.00072 15.9549 7.37816 15.5 7.64078C15.3517 7.7263 15.2279 7.84845 15.1404 7.99552C15.0528 8.1426 15.0045 8.30968 15 8.48078C14.9958 8.65055 15.0349 8.81858 15.1137 8.96904C15.1924 9.1195 15.3081 9.24743 15.45 9.34078L15.84 9.60078L15.97 9.67078C17.1754 10.2425 18.1923 11.1468 18.901 12.2771C19.6096 13.4074 19.9805 14.7167 19.97 16.0508C19.97 16.316 20.0754 16.5704 20.2629 16.7579C20.4504 16.9454 20.7048 17.0508 20.97 17.0508C21.2352 17.0508 21.4896 16.9454 21.6771 16.7579C21.8646 16.5704 21.97 16.316 21.97 16.0508C21.9782 14.5162 21.5938 13.005 20.8535 11.6608C20.1131 10.3167 19.0413 9.18409 17.74 8.37078Z" fill="black"/>
</svg>
