<?xml version="1.0" standalone="no"?>
<!DOCTYPE svg PUBLIC "-//W3C//DTD SVG 20010904//EN"
 "http://www.w3.org/TR/2001/REC-SVG-20010904/DTD/svg10.dtd">
<svg version="1.0" xmlns="http://www.w3.org/2000/svg"
 width="170.000000pt" height="170.000000pt" viewBox="0 0 170.000000 170.000000"
 preserveAspectRatio="xMidYMid meet">
<metadata>
Created by potrace 1.16, written by Peter Selinger 2001-2019
</metadata>
<g transform="translate(0.000000,170.000000) scale(0.033203,-0.033203)"
fill="#000000" stroke="none">
<path d="M1783 5095 c-76 -21 -129 -50 -185 -103 -59 -55 -94 -111 -119 -193
-18 -57 -19 -103 -19 -734 l0 -674 -482 -3 -483 -3 -73 -27 c-189 -69 -327
-202 -394 -381 l-23 -62 -3 -1195 c-2 -1189 -2 -1195 19 -1265 25 -86 74 -175
129 -238 83 -94 226 -174 354 -198 34 -6 390 -9 962 -7 l909 3 65 24 c104 38
170 80 246 156 50 50 83 95 108 146 59 120 67 162 73 387 l6 203 64 -3 65 -3
19 -72 c81 -321 312 -561 634 -659 81 -25 106 -27 245 -28 172 -1 233 11 370
69 197 82 382 264 470 461 30 66 70 201 70 236 0 10 5 18 11 18 5 0 35 12 66
27 77 38 154 118 195 200 l33 68 3 1420 2 1420 -513 513 -512 512 -233 0 -233
0 -24 -25 c-16 -15 -25 -36 -25 -55 0 -19 9 -40 25 -55 24 -25 27 -25 199 -25
l175 0 3 -327 c3 -309 4 -331 25 -381 32 -79 97 -158 166 -203 106 -69 124
-71 480 -77 l317 -4 -2 -1322 -3 -1321 -26 -56 c-24 -50 -91 -129 -110 -129
-4 0 -11 26 -15 58 -10 85 -49 213 -90 295 -120 240 -334 410 -599 478 -114
29 -312 31 -419 5 -396 -96 -667 -407 -711 -819 l-6 -57 -60 0 -59 0 0 505 0
505 530 0 531 0 24 25 c33 32 33 78 0 110 l-24 25 -531 0 -530 0 0 85 0 85
534 0 535 0 20 26 c12 15 21 37 21 49 0 12 -9 34 -21 49 l-20 26 -535 0 -534
0 0 85 0 85 530 0 531 0 24 25 c30 29 32 74 6 106 l-19 24 -546 3 -546 2 -6
28 c-4 15 -17 51 -30 79 l-23 53 576 2 575 3 19 24 c26 32 24 77 -6 106 l-24
25 -634 0 -634 0 -39 31 c-60 48 -171 97 -258 114 -59 11 -157 15 -412 15
l-334 0 0 663 c0 760 -4 725 84 813 89 89 40 84 918 84 l769 0 24 25 c16 15
25 36 25 55 0 19 -9 40 -25 55 l-24 25 -778 -1 c-637 0 -787 -3 -830 -14z
m3040 -973 c-16 -2 -127 -2 -248 0 -239 5 -260 9 -334 67 -20 16 -50 53 -67
83 l-29 53 -3 255 -3 255 356 -355 c327 -327 353 -355 328 -358z m-2491 -903
c164 -35 289 -145 351 -307 l22 -57 3 -1100 c2 -722 -1 -1127 -7 -1178 -27
-198 -173 -357 -366 -397 -34 -7 -341 -10 -935 -8 l-885 3 -57 23 c-83 33
-146 80 -201 147 -55 69 -84 141 -97 239 -13 96 -12 2139 0 2236 26 195 171
356 360 396 76 17 1735 19 1812 3z m1698 -1403 c163 -29 297 -101 415 -221
152 -156 222 -340 212 -555 -10 -198 -79 -352 -222 -496 -80 -81 -103 -98
-195 -142 -245 -119 -496 -109 -727 29 -72 44 -188 157 -238 234 -55 84 -102
214 -116 323 -19 149 13 308 88 445 158 282 475 438 783 383z"/>
<path d="M547 2977 c-51 -16 -103 -60 -127 -107 -18 -36 -20 -59 -20 -275 0
-198 3 -241 16 -268 46 -90 87 -107 257 -107 117 0 138 3 158 19 31 25 32 83
1 114 -20 20 -35 23 -145 27 l-122 5 -3 205 c-3 199 -2 206 19 223 20 16 76
17 851 17 l829 0 24 -25 c25 -24 25 -26 25 -208 0 -131 -4 -188 -12 -200 -12
-15 -66 -17 -634 -19 -596 -3 -623 -4 -643 -22 -28 -26 -29 -88 -1 -116 20
-20 33 -20 660 -20 620 0 642 1 680 20 47 24 84 71 99 125 14 52 14 389 0 454
-7 34 -23 64 -50 95 -70 79 -27 76 -983 75 -613 0 -851 -4 -879 -12z"/>
<path d="M500 1981 c-19 -10 -48 -35 -65 -55 l-30 -38 -3 -646 c-2 -356 0
-661 3 -678 7 -42 70 -113 119 -135 39 -18 87 -19 907 -19 l865 0 51 25 c58
29 97 78 113 145 8 31 10 236 8 665 -3 556 -5 623 -20 650 -22 40 -66 81 -101
94 -19 8 -314 11 -920 11 -850 0 -894 -1 -927 -19z m360 -296 l0 -155 -150 0
-150 0 0 148 c0 82 3 152 7 155 3 4 71 7 150 7 l143 0 0 -155z m490 0 l0 -155
-165 0 -165 0 0 155 0 155 165 0 165 0 0 -155z m490 0 l0 -155 -165 0 -165 0
0 155 0 155 165 0 165 0 0 -155z m460 136 c5 -11 10 -81 10 -155 l0 -136 -155
0 -155 0 0 155 0 155 145 0 c132 0 145 -2 155 -19z m-1440 -611 l0 -160 -150
0 -150 0 0 160 0 160 150 0 150 0 0 -160z m490 0 l0 -160 -165 0 -165 0 0 160
0 160 165 0 165 0 0 -160z m490 0 l0 -160 -165 0 -165 0 0 160 0 160 165 0
165 0 0 -160z m470 0 l0 -160 -155 0 -155 0 0 160 0 160 155 0 155 0 0 -160z
m-1450 -480 l0 -160 -132 0 c-176 0 -168 -8 -168 177 l0 143 150 0 150 0 0
-160z m490 0 l0 -160 -165 0 -165 0 0 160 0 160 165 0 165 0 0 -160z m490 0
l0 -160 -165 0 -165 0 0 160 0 160 165 0 165 0 0 -160z m470 26 c0 -120 -2
-136 -21 -160 -20 -26 -22 -26 -155 -26 l-134 0 0 160 0 160 155 0 155 0 0
-134z"/>
<path d="M3841 1574 c-12 -15 -21 -40 -21 -55 0 -18 -5 -29 -13 -29 -8 0 -32
-13 -54 -29 -55 -40 -93 -118 -93 -190 1 -121 61 -183 244 -251 101 -38 131
-81 100 -145 -23 -50 -57 -68 -126 -67 -41 1 -69 7 -92 21 -43 27 -100 27
-126 1 -27 -27 -27 -83 1 -111 24 -24 116 -69 142 -69 10 0 17 -8 17 -20 0
-49 41 -90 91 -90 32 0 69 44 69 83 0 28 5 35 33 45 93 34 161 140 161 251 -1
117 -59 192 -189 242 -124 48 -165 74 -165 108 0 69 75 100 153 62 87 -42 147
-20 147 53 0 45 -26 74 -92 101 -41 17 -48 24 -48 48 0 65 -97 94 -139 41z"/>
<path d="M2053 4185 c-45 -32 -36 -113 15 -134 19 -8 262 -11 830 -9 l804 3
19 24 c26 32 24 77 -6 106 l-24 25 -808 0 c-697 0 -811 -2 -830 -15z"/>
<path d="M4182 3207 c-27 -29 -28 -77 -3 -108 18 -23 26 -24 161 -27 155 -4
190 4 209 44 17 38 13 63 -14 89 -23 24 -28 25 -178 25 -148 0 -154 -1 -175
-23z"/>
<path d="M4185 2885 c-33 -32 -34 -83 -2 -113 22 -21 33 -22 176 -22 148 0
153 1 176 25 27 26 31 51 14 88 -18 40 -50 47 -200 47 -135 0 -141 -1 -164
-25z"/>
<path d="M4180 2560 c-12 -12 -20 -33 -20 -55 0 -22 8 -43 20 -55 18 -18 33
-20 179 -20 l160 0 20 26 c12 15 21 37 21 49 0 12 -9 34 -21 49 l-20 26 -160
0 c-146 0 -161 -2 -179 -20z"/>
<path d="M4182 2237 c-30 -32 -29 -81 3 -113 25 -25 26 -25 180 -22 177 3 190
9 190 79 0 31 -6 46 -24 60 -20 17 -41 19 -175 19 -146 0 -153 -1 -174 -23z"/>
</g>
</svg>
