<svg width="24" height="24" viewBox="0 0 24 24" fill="none" xmlns="http://www.w3.org/2000/svg">
<path fill-rule="evenodd" clip-rule="evenodd" d="M4.02026 19.23C3.98715 19.392 3.99472 19.5597 4.0423 19.718C4.08988 19.8764 4.17598 20.0205 4.29289 20.1374C4.40981 20.2543 4.55389 20.3404 4.71224 20.388C4.87059 20.4355 5.03826 20.4431 5.20026 20.41L9.01026 19.63L4.80026 15.42L4.02026 19.23V19.23ZM19.8443 6.707L17.7243 4.585C17.5384 4.39908 17.3176 4.2517 17.0746 4.15131C16.8316 4.05092 16.5712 3.9995 16.3083 4C15.7963 4 15.2843 4.195 14.8933 4.585L5.13626 14.343L10.0863 19.293L19.8433 9.535C20.2182 9.15995 20.4288 8.65133 20.4288 8.121C20.4288 7.59068 20.2182 7.08206 19.8433 6.707H19.8443Z" fill="#F5A524"/>
</svg>
