<svg width="77" height="26" viewBox="0 0 77 26" fill="none" xmlns="http://www.w3.org/2000/svg">
<g clip-path="url(#clip0_1658_42584)">
<path fill-rule="evenodd" clip-rule="evenodd" d="M14.5203 20.23C14.4871 20.392 14.4947 20.5597 14.5423 20.718C14.5899 20.8764 14.676 21.0205 14.7929 21.1374C14.9098 21.2543 15.0539 21.3404 15.2122 21.388C15.3706 21.4355 15.5383 21.4431 15.7003 21.41L19.5103 20.63L15.3003 16.42L14.5203 20.23V20.23ZM30.3443 7.707L28.2243 5.585C28.0384 5.39908 27.8176 5.2517 27.5746 5.15131C27.3316 5.05092 27.0712 4.9995 26.8083 5C26.2963 5 25.7843 5.195 25.3933 5.585L15.6363 15.343L20.5863 20.293L30.3433 10.535C30.7182 10.1599 30.9288 9.65133 30.9288 9.121C30.9288 8.59068 30.7182 8.08206 30.3433 7.707H30.3443Z" fill="#44546F"/>
<path fill-rule="evenodd" clip-rule="evenodd" d="M47.5 6C47.2348 6 46.9804 6.10536 46.7929 6.29289C46.6054 6.48043 46.5 6.73478 46.5 7V8H62.5V7C62.5 6.73478 62.3946 6.48043 62.2071 6.29289C62.0196 6.10536 61.7652 6 61.5 6H47.5ZM58.65 21H50.345C50.1084 20.9999 49.8796 20.916 49.699 20.7631C49.5185 20.6102 49.398 20.3983 49.359 20.165L47.5 9H61.5L59.636 20.166C59.5969 20.3992 59.4764 20.611 59.2959 20.7637C59.1153 20.9165 58.8865 21.0002 58.65 21V21ZM51.5 5.5C51.5 5.36894 51.5514 5.2431 51.6433 5.14959C51.7351 5.05608 51.86 5.00236 51.991 5H57.009C57.14 5.00236 57.2649 5.05608 57.3567 5.14959C57.4486 5.2431 57.5 5.36894 57.5 5.5V6H51.5V5.5Z" fill="#44546F"/>
</g>
<defs>
<clipPath id="clip0_1658_42584">
<rect width="76" height="26" fill="white" transform="translate(0.5)"/>
</clipPath>
</defs>
</svg>
