<svg width="32" height="32" viewBox="0 0 32 32" fill="none" xmlns="http://www.w3.org/2000/svg">
<path fill-rule="evenodd" clip-rule="evenodd" d="M9 9C8.73478 9 8.48043 9.10536 8.29289 9.29289C8.10536 9.48043 8 9.73478 8 10V11H24V10C24 9.73478 23.8946 9.48043 23.7071 9.29289C23.5196 9.10536 23.2652 9 23 9H9ZM20.15 24H11.845C11.6084 23.9999 11.3796 23.916 11.199 23.7631C11.0185 23.6102 10.898 23.3983 10.859 23.165L9 12H23L21.136 23.166C21.0969 23.3992 20.9764 23.611 20.7959 23.7637C20.6153 23.9165 20.3865 24.0002 20.15 24V24ZM13 8.5C13 8.36894 13.0514 8.2431 13.1433 8.14959C13.2351 8.05608 13.36 8.00236 13.491 8H18.509C18.64 8.00236 18.7649 8.05608 18.8567 8.14959C18.9486 8.2431 19 8.36894 19 8.5V9H13V8.5Z" fill="#F31260"/>
</svg>
