<svg width="30" height="29" viewBox="0 0 30 29" fill="none" xmlns="http://www.w3.org/2000/svg">
<path fill-rule="evenodd" clip-rule="evenodd" d="M23.3333 17.3327H26.6667V8.99935H3.33333V17.3327H6.66667V15.666C6.66667 15.224 6.84226 14.8001 7.15482 14.4875C7.46738 14.1749 7.89131 13.9993 8.33333 13.9993C8.77536 13.9993 9.19928 14.1749 9.51184 14.4875C9.8244 14.8001 10 15.224 10 15.666V17.3327H20V15.666C20 15.224 20.1756 14.8001 20.4882 14.4875C20.8007 14.1749 21.2246 13.9993 21.6667 13.9993C22.1087 13.9993 22.5326 14.1749 22.8452 14.4875C23.1577 14.8001 23.3333 15.224 23.3333 15.666V17.3327ZM23.3333 20.666V22.3327C23.3333 22.7747 23.1577 23.1986 22.8452 23.5112C22.5326 23.8238 22.1087 23.9994 21.6667 23.9994C21.2246 23.9994 20.8007 23.8238 20.4882 23.5112C20.1756 23.1986 20 22.7747 20 22.3327V20.666H10V22.3327C10 22.7747 9.8244 23.1986 9.51184 23.5112C9.19928 23.8238 8.77536 23.9994 8.33333 23.9994C7.89131 23.9994 7.46738 23.8238 7.15482 23.5112C6.84226 23.1986 6.66667 22.7747 6.66667 22.3327V20.666H3.33333V25.666H26.6667V20.666H23.3333ZM10 5.66602H20V3.99935H10V5.66602ZM6.66667 5.66602V2.33268C6.66667 1.89065 6.84226 1.46673 7.15482 1.15417C7.46738 0.841611 7.89131 0.666016 8.33333 0.666016H21.6667C22.1087 0.666016 22.5326 0.841611 22.8452 1.15417C23.1577 1.46673 23.3333 1.89065 23.3333 2.33268V5.66602H26.6667C27.5507 5.66602 28.3986 6.01721 29.0237 6.64233C29.6488 7.26745 30 8.11529 30 8.99935V25.666C30 26.5501 29.6488 27.3979 29.0237 28.023C28.3986 28.6482 27.5507 28.9994 26.6667 28.9994H3.33333C2.44928 28.9994 1.60143 28.6482 0.976311 28.023C0.351189 27.3979 0 26.5501 0 25.666V8.99935C0 8.11529 0.351189 7.26745 0.976311 6.64233C1.60143 6.01721 2.44928 5.66602 3.33333 5.66602H6.66667Z" fill="#E2284D"/>
</svg>
