<?xml version="1.0" standalone="no"?>
<!DOCTYPE svg PUBLIC "-//W3C//DTD SVG 1.0//EN" "http://www.w3.org/TR/2001/REC-SVG-20010904/DTD/svg10.dtd">
<svg xmlns="http://www.w3.org/2000/svg" xmlns:xlink="http://www.w3.org/1999/xlink" id="body_1" width="37" height="37">

<g transform="matrix(0.072265625 0 0 0.072265625 0 0)">
	<g>
        <path d="M156.5 -0.5C 218.167 -0.5 279.833 -0.5 341.5 -0.5C 341.333 46.1679 341.5 92.8345 342 139.5C 343.427 145.925 347.26 150.092 353.5 152C 400.499 152.5 447.499 152.667 494.5 152.5C 495.167 201.666 495.5 250.999 495.5 300.5C 495.644 353.186 495.144 405.853 494 458.5C 486.989 486.677 469.489 504.344 441.5 511.5C 346.5 511.5 251.5 511.5 156.5 511.5C 126.162 503.9 108.329 484.566 103 453.5C 102.5 427.502 102.333 401.502 102.5 375.5C 197.501 375.667 292.501 375.5 387.5 375C 392.428 373.073 395.594 369.573 397 364.5C 397.667 318.833 397.667 273.167 397 227.5C 395.167 223 392 219.833 387.5 218C 292.501 217.5 197.501 217.333 102.5 217.5C 102.333 164.166 102.5 110.832 103 57.5C 108.329 26.4336 126.162 7.10028 156.5 -0.5z" stroke="none" fill="#E5252A" fill-rule="nonzero" fill-opacity="0.99607843" />
	</g>
	<g>
        <path d="M341.5 -0.5C 341.833 -0.5 342.167 -0.5 342.5 -0.5C 393.167 50.5 443.833 101.5 494.5 152.5C 447.499 152.667 400.499 152.5 353.5 152C 347.26 150.092 343.427 145.925 342 139.5C 341.5 92.8345 341.333 46.1679 341.5 -0.5z" stroke="none" fill="#B71D21" fill-rule="nonzero" />
	</g>
	<g>
        <path d="M102.5 217.5C 197.501 217.333 292.501 217.5 387.5 218C 392 219.833 395.167 223 397 227.5C 397.667 273.167 397.667 318.833 397 364.5C 395.594 369.573 392.428 373.073 387.5 375C 292.501 375.5 197.501 375.667 102.5 375.5C 76.8312 375.667 51.1645 375.5 25.5 375C 19.5129 372.538 16.3463 368.038 16 361.5C 15.3333 318.167 15.3333 274.833 16 231.5C 16.3463 224.962 19.5129 220.462 25.5 218C 51.1645 217.5 76.8312 217.333 102.5 217.5z" stroke="none" fill="#B71D21" fill-rule="nonzero" fill-opacity="0.99607843" />
	</g>
	<g>
        <path d="M120.5 314.5C 113.167 314.5 105.833 314.5 98.5 314.5C 98.5 323.833 98.5 333.167 98.5 342.5C 96.4117 348.127 92.4117 349.961 86.5 348C 84.9512 346.786 83.7845 345.286 83 343.5C 82.3333 311.833 82.3333 280.167 83 248.5C 84.5429 246.622 86.3762 245.122 88.5 244C 99.5 243.333 110.5 243.333 121.5 244C 140.313 248.147 150.647 259.814 152.5 279C 151.097 299.234 140.431 311.067 120.5 314.5z" stroke="none" fill="#FEFCFC" fill-rule="nonzero" />
	</g>
	<g>
        <path d="M177.5 243.5C 190.219 243.102 202.886 243.602 215.5 245C 229.277 249.777 237.777 259.277 241 273.5C 241.667 288.5 241.667 303.5 241 318.5C 238.014 334.151 228.847 343.984 213.5 348C 200.833 348.667 188.167 348.667 175.5 348C 173.951 346.786 172.785 345.286 172 343.5C 171.333 311.833 171.333 280.167 172 248.5C 173.73 246.598 175.563 244.931 177.5 243.5z" stroke="none" fill="#FEFCFC" fill-rule="nonzero" />
	</g>
	<g>
        <path d="M267.5 243.5C 286.836 243.333 306.17 243.5 325.5 244C 330.945 246.11 332.778 249.944 331 255.5C 329.891 257.815 328.057 259.315 325.5 260C 309.837 260.5 294.17 260.667 278.5 260.5C 278.5 268.167 278.5 275.833 278.5 283.5C 292.171 283.333 305.837 283.5 319.5 284C 324.224 286.435 325.724 290.269 324 295.5C 322.833 296.667 321.667 297.833 320.5 299C 306.504 299.5 292.504 299.667 278.5 299.5C 278.667 314.17 278.5 328.837 278 343.5C 274.634 348.609 270.134 349.776 264.5 347C 263.54 345.581 262.707 344.081 262 342.5C 261.333 311.5 261.333 280.5 262 249.5C 263.36 246.977 265.193 244.977 267.5 243.5z" stroke="none" fill="#FDF9F9" fill-rule="nonzero" />
	</g>
	<g>
        <path d="M99.5 260.5C 99.5 272.833 99.5 285.167 99.5 297.5C 106.833 297.5 114.167 297.5 121.5 297.5C 114.018 298.492 106.352 298.825 98.5 298.5C 98.1713 285.656 98.5046 272.989 99.5 260.5z" stroke="none" fill="#D47778" fill-rule="nonzero" />
	</g>
	<g>
        <path d="M99.5 260.5C 106.508 260.334 113.508 260.5 120.5 261C 129.982 262.983 134.982 268.816 135.5 278.5C 135.397 288.261 130.73 294.594 121.5 297.5C 114.167 297.5 106.833 297.5 99.5 297.5C 99.5 285.167 99.5 272.833 99.5 260.5z" stroke="none" fill="#B71E21" fill-rule="nonzero" />
	</g>
	<g>
        <path d="M187.5 260.5C 216.776 254.945 229.11 266.779 224.5 296C 229.579 325.754 217.246 337.921 187.5 332.5C 187.5 308.5 187.5 284.5 187.5 260.5z" stroke="none" fill="#B82124" fill-rule="nonzero" />
	</g>
	<g>
        <path d="M120.5 314.5C 113.687 315.491 106.687 315.825 99.5 315.5C 99.8266 324.682 99.4933 333.682 98.5 342.5C 98.5 333.167 98.5 323.833 98.5 314.5C 105.833 314.5 113.167 314.5 120.5 314.5z" stroke="none" fill="#D27273" fill-rule="nonzero" />
	</g>
</g>
</svg>