<svg width="27" height="27" viewBox="0 0 27 27" fill="none" xmlns="http://www.w3.org/2000/svg">
<path fill-rule="evenodd" clip-rule="evenodd" d="M5.01971 21.4079C4.9835 21.585 4.99178 21.7683 5.04381 21.9415C5.09584 22.1147 5.18999 22.2722 5.31784 22.4001C5.44568 22.5279 5.60323 22.622 5.77639 22.6741C5.94954 22.7261 6.13289 22.7344 6.31003 22.6982L10.4763 21.8453L5.87264 17.2416L5.01971 21.4079V21.4079ZM22.3232 7.714L20.005 5.39361C19.8017 5.1903 19.5603 5.02914 19.2946 4.91936C19.0289 4.80959 18.7441 4.75336 18.4566 4.75391C17.8967 4.75391 17.3368 4.96714 16.9093 5.39361L6.24005 16.0639L11.6529 21.4767L22.3221 10.8064C22.7321 10.3963 22.9624 9.84012 22.9624 9.26021C22.9624 8.6803 22.7321 8.12413 22.3221 7.714H22.3232Z" fill="white"/>
</svg>
