<?xml version="1.0" standalone="no"?>
<!DOCTYPE svg PUBLIC "-//W3C//DTD SVG 1.0//EN" "http://www.w3.org/TR/2001/REC-SVG-20010904/DTD/svg10.dtd">
<svg xmlns="http://www.w3.org/2000/svg" xmlns:xlink="http://www.w3.org/1999/xlink" id="body_1" width="37" height="37">

<g transform="matrix(0.072265625 0 0 0.072265625 0 0)">
	<g>
        <path d="M9.5 -0.5C 98.1667 -0.5 186.833 -0.5 275.5 -0.5C 275.5 27.5 275.5 55.5 275.5 83.5C 275.109 90.9209 275.609 98.2542 277 105.5C 279.455 110.149 283.288 112.983 288.5 114C 316.165 114.5 343.831 114.667 371.5 114.5C 371.5 108.167 371.5 101.833 371.5 95.5C 372.497 117.66 372.831 139.994 372.5 162.5C 357.211 155.678 341.211 151.678 324.5 150.5C 324.737 149.209 324.404 148.209 323.5 147.5C 322.746 144.909 321.079 143.076 318.5 142C 259.5 141.333 200.5 141.333 141.5 142C 136.776 144.435 135.276 148.269 137 153.5C 138.167 154.667 139.333 155.833 140.5 157C 183.499 157.5 226.499 157.667 269.5 157.5C 256.164 163.174 243.831 170.507 232.5 179.5C 201.832 179.333 171.165 179.5 140.5 180C 136.723 182.955 135.557 186.788 137 191.5C 138.214 193.049 139.714 194.215 141.5 195C 166.498 195.5 191.498 195.667 216.5 195.5C 203.476 211.88 194.476 230.213 189.5 250.5C 173.163 250.333 156.83 250.5 140.5 251C 136.247 254.42 135.413 258.587 138 263.5C 139.113 264.305 140.279 264.972 141.5 265.5C 156.658 266.496 171.991 266.83 187.5 266.5C 186.614 273.457 186.28 280.457 186.5 287.5C 171.657 287.171 156.99 287.504 142.5 288.5C 138.26 289.126 136.26 291.626 136.5 296C 136.301 299.274 137.634 301.607 140.5 303C 156.83 303.5 173.163 303.667 189.5 303.5C 194.033 325.231 203.366 344.564 217.5 361.5C 191.831 361.333 166.165 361.5 140.5 362C 138.667 362.5 137.5 363.667 137 365.5C 135.622 369.987 136.788 373.487 140.5 376C 171.165 376.5 201.832 376.667 232.5 376.5C 243.568 385.367 255.568 392.7 268.5 398.5C 226.165 398.333 183.832 398.5 141.5 399C 136.776 401.435 135.276 405.269 137 410.5C 138.167 411.667 139.333 412.833 140.5 414C 199.5 414.667 258.5 414.667 317.5 414C 320.079 412.924 321.746 411.091 322.5 408.5C 330.183 405.933 338.183 404.099 346.5 403C 355.171 400.054 363.838 397.22 372.5 394.5C 372.832 428.671 372.498 462.671 371.5 496.5C 371.666 491.489 371.499 486.489 371 481.5C 369.474 487.026 365.974 490.526 360.5 492C 243.5 492.667 126.5 492.667 9.5 492C 4.58373 489.919 1.25039 486.419 -0.5 481.5C -0.5 324.167 -0.5 166.833 -0.5 9.5C 1.83333 5.16667 5.16667 1.83333 9.5 -0.5z" stroke="none" fill="#F8F5F5" fill-rule="nonzero" />
	</g>
	<g>
        <path d="M275.5 -0.5C 276.167 -0.5 276.833 -0.5 277.5 -0.5C 308.465 30.9654 339.632 62.2987 371 93.5C 371.464 94.0944 371.631 94.7611 371.5 95.5C 343.165 95.6666 314.831 95.5 286.5 95C 281.226 92.5627 277.56 88.7294 275.5 83.5C 275.5 55.5 275.5 27.5 275.5 -0.5z" stroke="none" fill="#E2CCE2" fill-rule="nonzero" fill-opacity="0.9882353" />
	</g>
	<g>
        <path d="M275.5 83.5C 277.56 88.7294 281.226 92.5627 286.5 95C 314.831 95.5 343.165 95.6666 371.5 95.5C 371.5 101.833 371.5 108.167 371.5 114.5C 343.831 114.667 316.165 114.5 288.5 114C 283.288 112.983 279.455 110.149 277 105.5C 275.609 98.2542 275.109 90.9209 275.5 83.5z" stroke="none" fill="#ECDAEC" fill-rule="nonzero" />
	</g>
	<g>
        <path d="M105.5 170.5C 103.954 173.2 101.621 175.033 98.5 176C 85.1667 176.667 71.8333 176.667 58.5 176C 55.9774 174.64 53.9774 172.807 52.5 170.5C 52.3336 162.826 52.5003 155.159 53 147.5C 54.8734 145.291 57.04 143.458 59.5 142C 72.1667 141.333 84.8333 141.333 97.5 142C 100.196 142.69 102.363 144.19 104 146.5C 105.435 154.389 105.935 162.389 105.5 170.5z" stroke="none" fill="#99DB7D" fill-rule="nonzero" />
	</g>
	<g>
        <path d="M323.5 147.5C 305.329 148.487 287.329 151.821 269.5 157.5C 226.499 157.667 183.499 157.5 140.5 157C 139.333 155.833 138.167 154.667 137 153.5C 135.276 148.269 136.776 144.435 141.5 142C 200.5 141.333 259.5 141.333 318.5 142C 321.079 143.076 322.746 144.909 323.5 147.5z" stroke="none" fill="#3C6280" fill-rule="nonzero" />
	</g>
	<g>
        <path d="M323.5 147.5C 324.404 148.209 324.737 149.209 324.5 150.5C 341.211 151.678 357.211 155.678 372.5 162.5C 415.717 185.075 439.384 220.742 443.5 269.5C 438.985 314.047 417.652 347.881 379.5 371C 350.219 386.896 319.219 391.563 286.5 385C 239.591 372.095 208.091 342.595 192 296.5C 190.111 289.277 188.777 281.943 188 274.5C 187.501 279.155 187.334 283.821 187.5 288.5C 172.5 288.5 157.5 288.5 142.5 288.5C 156.99 287.504 171.657 287.171 186.5 287.5C 186.28 280.457 186.614 273.457 187.5 266.5C 171.991 266.83 156.658 266.496 141.5 265.5C 156.833 265.5 172.167 265.5 187.5 265.5C 187.685 260.43 188.352 255.43 189.5 250.5C 194.476 230.213 203.476 211.88 216.5 195.5C 221.5 189.833 226.833 184.5 232.5 179.5C 243.831 170.507 256.164 163.174 269.5 157.5C 287.329 151.821 305.329 148.487 323.5 147.5z" stroke="none" fill="#E1CAE1" fill-rule="nonzero" fill-opacity="0.99607843" />
	</g>
	<g>
        <path d="M52.5 170.5C 53.9774 172.807 55.9774 174.64 58.5 176C 71.8333 176.667 85.1667 176.667 98.5 176C 101.621 175.033 103.954 173.2 105.5 170.5C 109.152 192.176 100.152 200.509 78.5 195.5C 57.3617 200.027 48.695 191.694 52.5 170.5z" stroke="none" fill="#84D364" fill-rule="nonzero" />
	</g>
	<g>
        <path d="M232.5 179.5C 226.833 184.5 221.5 189.833 216.5 195.5C 191.498 195.667 166.498 195.5 141.5 195C 139.714 194.215 138.214 193.049 137 191.5C 135.557 186.788 136.723 182.955 140.5 180C 171.165 179.5 201.832 179.333 232.5 179.5z" stroke="none" fill="#3C6280" fill-rule="nonzero" />
	</g>
	<g>
        <path d="M407.5 284.5C 407.665 281.15 407.498 277.817 407 274.5C 397.4 318.766 370.233 344.599 325.5 352C 280.298 354.49 248.131 335.323 229 294.5C 226.754 287.389 224.588 280.389 222.5 273.5C 226.472 231.723 248.139 203.556 287.5 189C 333.659 178.265 369.826 192.432 396 231.5C 405.735 248.082 409.568 265.749 407.5 284.5z" stroke="none" fill="#FEE17A" fill-rule="nonzero" />
	</g>
	<g>
        <path d="M361.5 250.5C 360.761 250.369 360.094 250.536 359.5 251C 345.529 265.971 331.196 280.638 316.5 295C 310.139 298.272 303.806 298.272 297.5 295C 289.245 286.576 280.911 278.41 272.5 270.5C 276.753 263.89 282.753 261.723 290.5 264C 292.725 264.561 294.725 265.561 296.5 267C 299.682 270.349 303.015 273.516 306.5 276.5C 317.319 266.181 327.986 255.681 338.5 245C 347.754 240.449 355.421 242.282 361.5 250.5z" stroke="none" fill="#98DA7B" fill-rule="nonzero" />
	</g>
	<g>
        <path d="M189.5 250.5C 188.352 255.43 187.685 260.43 187.5 265.5C 172.167 265.5 156.833 265.5 141.5 265.5C 140.279 264.972 139.113 264.305 138 263.5C 135.413 258.587 136.247 254.42 140.5 251C 156.83 250.5 173.163 250.333 189.5 250.5z" stroke="none" fill="#365E7D" fill-rule="nonzero" />
	</g>
	<g>
        <path d="M361.5 250.5C 364.581 257.597 363.748 264.264 359 270.5C 345.137 284.029 331.637 297.862 318.5 312C 311.423 317.563 304.089 317.897 296.5 313C 288.333 304.833 280.167 296.667 272 288.5C 268.53 282.274 268.697 276.274 272.5 270.5C 280.911 278.41 289.245 286.576 297.5 295C 303.806 298.272 310.139 298.272 316.5 295C 331.196 280.638 345.529 265.971 359.5 251C 360.094 250.536 360.761 250.369 361.5 250.5z" stroke="none" fill="#83D361" fill-rule="nonzero" />
	</g>
	<g>
        <path d="M105.5 278.5C 104.023 280.807 102.023 282.64 99.5 284C 85.5 284.667 71.5 284.667 57.5 284C 55.9625 282.293 54.2959 280.793 52.5 279.5C 52.0619 271.057 52.5619 262.723 54 254.5C 55.214 252.951 56.714 251.785 58.5 251C 71.8333 250.333 85.1667 250.333 98.5 251C 101.583 251.786 103.749 253.619 105 256.5C 105.5 263.826 105.666 271.159 105.5 278.5z" stroke="none" fill="#98DB7C" fill-rule="nonzero" />
	</g>
	<g>
        <path d="M222.5 273.5C 224.588 280.389 226.754 287.389 229 294.5C 248.131 335.323 280.298 354.49 325.5 352C 370.233 344.599 397.4 318.766 407 274.5C 407.498 277.817 407.665 281.15 407.5 284.5C 403.4 325.877 381.734 353.377 342.5 367C 296.89 378.1 261.057 364.266 235 325.5C 226.121 309.316 221.954 291.982 222.5 273.5z" stroke="none" fill="#F8CF5A" fill-rule="nonzero" />
	</g>
	<g>
        <path d="M443.5 269.5C 445.839 300.136 438.172 328.136 420.5 353.5C 415.157 358.844 410.157 364.511 405.5 370.5C 400.134 374.541 395.134 378.874 390.5 383.5C 384.464 387.181 378.464 390.848 372.5 394.5C 363.838 397.22 355.171 400.054 346.5 403C 338.183 404.099 330.183 405.933 322.5 408.5C 304.333 407.578 286.333 404.245 268.5 398.5C 255.568 392.7 243.568 385.367 232.5 376.5C 227.194 371.86 222.194 366.86 217.5 361.5C 203.366 344.564 194.033 325.231 189.5 303.5C 188.097 298.613 187.431 293.613 187.5 288.5C 187.334 283.821 187.501 279.155 188 274.5C 188.777 281.943 190.111 289.277 192 296.5C 208.091 342.595 239.591 372.095 286.5 385C 319.219 391.563 350.219 386.896 379.5 371C 417.652 347.881 438.985 314.047 443.5 269.5z" stroke="none" fill="#D9B9D7" fill-rule="nonzero" fill-opacity="0.99215686" />
	</g>
	<g>
        <path d="M105.5 278.5C 109.78 300.882 100.78 309.216 78.5 303.5C 57.2089 308.871 48.5422 300.871 52.5 279.5C 54.2959 280.793 55.9625 282.293 57.5 284C 71.5 284.667 85.5 284.667 99.5 284C 102.023 282.64 104.023 280.807 105.5 278.5z" stroke="none" fill="#82D362" fill-rule="nonzero" />
	</g>
	<g>
        <path d="M142.5 288.5C 157.5 288.5 172.5 288.5 187.5 288.5C 187.431 293.613 188.097 298.613 189.5 303.5C 173.163 303.667 156.83 303.5 140.5 303C 137.634 301.607 136.301 299.274 136.5 296C 136.26 291.626 138.26 289.126 142.5 288.5z" stroke="none" fill="#365E7D" fill-rule="nonzero" />
	</g>
	<g>
        <path d="M420.5 353.5C 429.833 362.5 439.167 371.5 448.5 380.5C 444.227 386.442 439.227 391.776 433.5 396.5C 423.886 388.223 414.553 379.556 405.5 370.5C 410.157 364.511 415.157 358.844 420.5 353.5z" stroke="none" fill="#EBD9EB" fill-rule="nonzero" fill-opacity="0.9764706" />
	</g>
	<g>
        <path d="M105.5 389.5C 104.023 391.807 102.023 393.64 99.5 395C 85.8333 395.667 72.1667 395.667 58.5 395C 55.9774 393.64 53.9774 391.807 52.5 389.5C 46.5673 365.936 55.4007 356.602 79 361.5C 102.599 356.602 111.433 365.936 105.5 389.5z" stroke="none" fill="#98DB7C" fill-rule="nonzero" />
	</g>
	<g>
        <path d="M217.5 361.5C 222.194 366.86 227.194 371.86 232.5 376.5C 201.832 376.667 171.165 376.5 140.5 376C 136.788 373.487 135.622 369.987 137 365.5C 137.5 363.667 138.667 362.5 140.5 362C 166.165 361.5 191.831 361.333 217.5 361.5z" stroke="none" fill="#365E7D" fill-rule="nonzero" />
	</g>
	<g>
        <path d="M405.5 370.5C 414.553 379.556 423.886 388.223 433.5 396.5C 431.5 398.833 429.5 401.167 427.5 403.5C 424.436 406.57 421.103 409.237 417.5 411.5C 408.5 402.167 399.5 392.833 390.5 383.5C 395.134 378.874 400.134 374.541 405.5 370.5z" stroke="none" fill="#E3CBE2" fill-rule="nonzero" />
	</g>
	<g>
        <path d="M511.5 437.5C 511.5 442.833 511.5 448.167 511.5 453.5C 510.655 454.671 509.989 456.005 509.5 457.5C 499.021 462.108 489.021 461.274 479.5 455C 462.299 437.632 444.965 420.465 427.5 403.5C 429.5 401.167 431.5 398.833 433.5 396.5C 439.227 391.776 444.227 386.442 448.5 380.5C 451.141 377.558 454.141 377.058 457.5 379C 474 395.5 490.5 412 507 428.5C 508.546 431.592 510.046 434.592 511.5 437.5z" stroke="none" fill="#FE4755" fill-rule="nonzero" fill-opacity="0.9882353" />
	</g>
	<g>
        <path d="M52.5 389.5C 53.9774 391.807 55.9774 393.64 58.5 395C 72.1667 395.667 85.8333 395.667 99.5 395C 102.023 393.64 104.023 391.807 105.5 389.5C 105.666 395.509 105.499 401.509 105 407.5C 104.167 411 102 413.167 98.5 414C 85.5 414.667 72.5 414.667 59.5 414C 56 413.167 53.8333 411 53 407.5C 52.5005 401.509 52.3338 395.509 52.5 389.5z" stroke="none" fill="#83D363" fill-rule="nonzero" />
	</g>
	<g>
        <path d="M268.5 398.5C 286.333 404.245 304.333 407.578 322.5 408.5C 321.746 411.091 320.079 412.924 317.5 414C 258.5 414.667 199.5 414.667 140.5 414C 139.333 412.833 138.167 411.667 137 410.5C 135.276 405.269 136.776 401.435 141.5 399C 183.832 398.5 226.165 398.333 268.5 398.5z" stroke="none" fill="#3B617F" fill-rule="nonzero" />
	</g>
	<g>
        <path d="M427.5 403.5C 444.965 420.465 462.299 437.632 479.5 455C 489.021 461.274 499.021 462.108 509.5 457.5C 500.426 473.614 487.093 478.448 469.5 472C 451.06 455.561 433.226 438.395 416 420.5C 415.068 417.177 415.568 414.177 417.5 411.5C 421.103 409.237 424.436 406.57 427.5 403.5z" stroke="none" fill="#FC2B3A" fill-rule="nonzero" fill-opacity="0.9843137" />
	</g>
	<g>
        <path d="M-0.5 481.5C 1.25039 486.419 4.58373 489.919 9.5 492C 126.5 492.667 243.5 492.667 360.5 492C 365.974 490.526 369.474 487.026 371 481.5C 371.499 486.489 371.666 491.489 371.5 496.5C 371.331 503.66 367.997 508.66 361.5 511.5C 244.167 511.5 126.833 511.5 9.5 511.5C 5.16667 509.167 1.83333 505.833 -0.5 501.5C -0.5 494.833 -0.5 488.167 -0.5 481.5z" stroke="none" fill="#ECDAEC" fill-rule="nonzero" fill-opacity="0.99607843" />
	</g>
</g>
</svg>