<svg width="41" height="40" viewBox="0 0 41 40" fill="none" xmlns="http://www.w3.org/2000/svg">
<circle cx="20.9995" cy="20.5" r="19.5" fill="#01C246"/>
<path d="M39.6686 17.8486C40.2544 17.7815 40.7866 18.2021 40.8221 18.7906C41.064 22.7926 40.1006 26.7844 38.0443 30.2422C35.8058 34.0063 32.396 36.9291 28.3393 38.5612C24.2826 40.1933 19.8035 40.4444 15.5906 39.2759C11.3776 38.1074 7.66416 35.5839 5.02103 32.0934C2.3779 28.603 0.951454 24.3388 0.960985 19.9564C0.970515 15.574 2.4155 11.3161 5.07378 7.83722C7.73207 4.35835 11.4565 1.85113 15.6744 0.701023C19.5484 -0.355281 23.6417 -0.213104 27.421 1.09531C27.9784 1.2883 28.2406 1.9141 28.019 2.46078C27.7968 3.00884 27.1729 3.26928 26.6128 3.07953C23.2689 1.94665 19.6559 1.83273 16.2345 2.76565C12.4678 3.79271 9.14183 6.0317 6.76793 9.1384C4.39403 12.2451 3.10364 16.0475 3.09513 19.9611C3.08661 23.8746 4.36046 27.6826 6.72083 30.7997C9.08119 33.9167 12.3974 36.1702 16.1596 37.2138C19.9218 38.2573 23.9218 38.033 27.5445 36.5755C31.1672 35.118 34.2122 32.5079 36.2112 29.1464C38.0282 26.0911 38.8897 22.5687 38.6984 19.0328C38.6665 18.4445 39.0833 17.9158 39.6686 17.8486Z" fill="#3C3C3C"/>
<path fill-rule="evenodd" clip-rule="evenodd" d="M36.8791 4.5C36.8791 3.39543 35.9837 2.5 34.8791 2.5C33.7745 2.5 32.8791 3.39543 32.8791 4.5V5H30.3906C29.2861 5 28.3906 5.89543 28.3906 7C28.3906 8.10457 29.2861 9 30.3906 9H32.8791V11.5C32.8791 12.6046 33.7745 13.5 34.8791 13.5C35.9837 13.5 36.8791 12.6046 36.8791 11.5V9H37.3625C38.4671 9 39.3625 8.10457 39.3625 7C39.3625 5.89543 38.4671 5 37.3625 5H36.8791V4.5Z" fill="#3C3C3C"/>
<path d="M20.8118 30.5C20.4932 30.5 20.2324 30.3896 20.0296 30.1688C19.8269 29.9627 19.7255 29.705 19.7255 29.3959V27.8943C18.8419 27.8354 18.0524 27.6956 17.3571 27.4748C16.6763 27.2392 16.0897 26.9816 15.5972 26.7019C15.264 26.5105 15.054 26.2529 14.9671 25.929C14.8947 25.6052 14.9164 25.296 15.0323 25.0016C15.1481 24.7071 15.3437 24.5011 15.6189 24.3833C15.8941 24.2655 16.22 24.317 16.5967 24.5379C17.0022 24.7734 17.531 25.0016 18.1828 25.2224C18.8491 25.4285 19.6458 25.5315 20.5728 25.5315C21.6592 25.5315 22.4414 25.3402 22.9194 24.9574C23.3975 24.5599 23.6365 24.0668 23.6365 23.4779C23.6365 22.9921 23.4699 22.5946 23.1367 22.2855C22.8036 21.9763 22.2097 21.7261 21.355 21.5347L19.0519 21.0268C16.4301 20.4527 15.1192 19.0542 15.1192 16.8312C15.1192 15.5946 15.532 14.5568 16.3577 13.7177C17.1978 12.8638 18.3204 12.3486 19.7255 12.1719V10.6041C19.7255 10.295 19.8269 10.0373 20.0296 9.83123C20.2324 9.61041 20.4932 9.5 20.8118 9.5C21.116 9.5 21.3695 9.61041 21.5723 9.83123C21.7896 10.0373 21.8982 10.295 21.8982 10.6041V12.1498C22.4776 12.2087 23.086 12.3486 23.7234 12.5694C24.3752 12.7902 24.9401 13.092 25.4181 13.4748C25.6934 13.6956 25.8527 13.9532 25.8961 14.2476C25.9396 14.5273 25.8889 14.7923 25.744 15.0426C25.6137 15.2781 25.4036 15.4401 25.1139 15.5284C24.8387 15.602 24.5128 15.5284 24.1362 15.3076C23.7161 15.0573 23.2454 14.8586 22.7239 14.7114C22.2024 14.5494 21.5796 14.4685 20.8553 14.4685C19.9283 14.4685 19.1967 14.6819 18.6608 15.1088C18.1393 15.521 17.8786 16.0657 17.8786 16.7429C17.8786 17.2434 18.0379 17.6483 18.3566 17.9574C18.6753 18.2518 19.2185 18.4874 19.9862 18.664L22.3545 19.194C23.7451 19.5032 24.7663 19.9963 25.4181 20.6735C26.07 21.336 26.3959 22.2119 26.3959 23.3013C26.3959 24.5379 25.9758 25.5536 25.1357 26.3486C24.31 27.1288 23.2309 27.622 21.8982 27.8281V29.3959C21.8982 29.705 21.7968 29.9627 21.594 30.1688C21.3913 30.3896 21.1305 30.5 20.8118 30.5Z" fill="white"/>
</svg>
