<svg width="78" height="61" viewBox="0 0 78 61" fill="none" xmlns="http://www.w3.org/2000/svg">
<rect x="2" y="2" width="58" height="40" rx="6" fill="#01C246" stroke="#3C3C3C" stroke-width="4"/>
<rect x="18" y="19" width="58" height="40" rx="6" fill="white" stroke="#3C3C3C" stroke-width="4"/>
<path d="M46.6058 53.9178C46.0123 53.9178 45.5109 53.7085 45.1016 53.2899C44.6923 52.8714 44.4876 52.3481 44.4876 51.7203V49.3972L45.4086 50.2448C44.0374 50.182 42.8504 50.0041 41.8476 49.7111C40.8447 49.4181 40.0261 49.1251 39.3917 48.8321C38.8596 48.5809 38.4809 48.2252 38.2558 47.7647C38.0512 47.3043 37.9693 46.8334 38.0102 46.352C38.0716 45.8707 38.2456 45.4312 38.5321 45.0335C38.8186 44.6359 39.187 44.3742 39.6373 44.2487C40.108 44.1022 40.6503 44.165 41.2643 44.437C41.6736 44.6673 42.2876 44.9079 43.1062 45.1591C43.9453 45.3893 44.9788 45.5044 46.2068 45.5044C47.0663 45.5044 47.7417 45.4207 48.2329 45.2533C48.7445 45.0858 49.1027 44.8661 49.3073 44.594C49.5324 44.301 49.645 43.9871 49.645 43.6522C49.645 43.3383 49.5631 43.0767 49.3994 42.8674C49.2562 42.6372 49.0106 42.4383 48.6626 42.2709C48.3147 42.0825 47.8338 41.9151 47.2198 41.7686L43.7509 41.0152C41.8476 40.5757 40.4252 39.8431 39.4838 38.8176C38.5628 37.7712 38.1023 36.4213 38.1023 34.7679C38.1023 33.5122 38.3991 32.3925 38.9926 31.4088C39.6066 30.4042 40.4559 29.588 41.5406 28.9601C42.6457 28.3323 43.9351 27.9346 45.4086 27.7672L44.4876 28.3009V26.1975C44.4876 25.5697 44.6923 25.0464 45.1016 24.6279C45.5109 24.2093 46.0123 24 46.6058 24C47.2198 24 47.7315 24.2093 48.1408 24.6279C48.5501 25.0464 48.7547 25.5697 48.7547 26.1975V28.3009L47.8338 27.7044C48.6115 27.7253 49.4506 27.8614 50.3511 28.1125C51.2516 28.3427 52.0395 28.6671 52.7149 29.0857C53.1856 29.3369 53.513 29.6822 53.6972 30.1217C53.9019 30.5612 53.9735 31.0112 53.9121 31.4716C53.8712 31.9111 53.7074 32.3088 53.4209 32.6645C53.1549 33.0203 52.7865 33.261 52.3158 33.3866C51.8655 33.4912 51.3232 33.4075 50.6888 33.1354C50.218 32.9262 49.6859 32.7587 49.0924 32.6332C48.5194 32.4867 47.7826 32.4134 46.8821 32.4134C45.7974 32.4134 44.9583 32.6122 44.3648 33.0099C43.7918 33.4075 43.5053 33.9203 43.5053 34.5481C43.5053 34.9667 43.669 35.3225 43.9965 35.6155C44.3444 35.8876 44.9686 36.1283 45.8691 36.3376L49.3687 37.1224C51.313 37.5619 52.7456 38.2944 53.6665 39.3199C54.6079 40.3245 55.0787 41.6326 55.0787 43.2441C55.0787 44.4998 54.7819 45.609 54.1884 46.5718C53.5949 47.5345 52.766 48.3193 51.7018 48.9263C50.6581 49.5332 49.4403 49.9309 48.0487 50.1192L48.7547 49.3658V51.7203C48.7547 52.3481 48.5501 52.8714 48.1408 53.2899C47.7519 53.7085 47.2403 53.9178 46.6058 53.9178Z" fill="#3C3C3C"/>
</svg>
