<svg width="31" height="27" viewBox="0 0 31 27" fill="none" xmlns="http://www.w3.org/2000/svg">
<path fill-rule="evenodd" clip-rule="evenodd" d="M9.85025 10.5842H3.83317C2.21005 10.5842 0.916504 11.8894 0.916504 13.5009V18.9405C0.916504 20.8509 3.64942 21.9344 6.74984 22.1926V17.8701C6.75215 16.711 7.21402 15.6001 8.03416 14.7811C8.85429 13.9621 9.96576 13.5017 11.1248 13.5009H11.6411C10.7659 12.7296 10.1421 11.7136 9.85025 10.5842ZM21.1494 10.5842H27.1665C28.778 10.5842 30.0832 11.8749 30.0832 13.5009V18.9405C30.0832 20.8509 27.3503 21.9344 24.2498 22.1926V17.8701C24.2483 16.7108 23.7867 15.5995 22.9664 14.7802C22.1461 13.961 21.0341 13.5009 19.8748 13.5009H19.3586C20.2337 12.7296 20.8575 11.7136 21.1494 10.5842ZM12.535 4.10048C12.4008 3.20951 11.9948 2.38171 11.3725 1.73017C10.7501 1.07863 9.94176 0.635134 9.05787 0.460278C8.17398 0.285423 7.25767 0.387735 6.43411 0.753237C5.61055 1.11874 4.91993 1.7296 4.45661 2.50237C3.99328 3.27513 3.77984 4.1721 3.84546 5.07073C3.91108 5.96935 4.25255 6.8258 4.82322 7.52306C5.3939 8.22032 6.16593 8.72438 7.03385 8.96637C7.90176 9.20835 8.82322 9.17647 9.67234 8.87507C9.71368 7.90367 9.99723 6.95802 10.4972 6.12414C10.9972 5.29026 11.6977 4.59462 12.535 4.10048ZM21.3288 8.87507C22.1778 9.17634 23.0991 9.20817 23.9669 8.96621C24.8347 8.72425 25.6066 8.2203 26.1773 7.5232C26.7479 6.82609 27.0894 5.96983 27.1552 5.07135C27.221 4.17287 27.0078 3.276 26.5447 2.50323C26.0817 1.73046 25.3913 1.11948 24.5681 0.753731C23.7448 0.387988 22.8286 0.285317 21.9448 0.459744C21.061 0.634171 20.2525 1.07719 19.6299 1.72829C19.0073 2.37939 18.6008 3.20682 18.4661 4.09757C19.3043 4.59146 20.0054 5.28744 20.5055 6.12198C21.0055 6.95651 21.2886 7.90301 21.3288 8.87507Z" fill="#E2284D"/>
<path fill-rule="evenodd" clip-rule="evenodd" d="M8.20817 17.8759C8.20817 16.2644 9.50171 14.9592 11.1248 14.9592H19.8748C21.4863 14.9592 22.7915 16.2499 22.7915 17.8759V23.3155C22.7915 27.7299 8.20817 27.7299 8.20817 23.3155V17.8759Z" fill="#E2284D"/>
<path d="M15.4998 13.5009C17.9161 13.5009 19.8748 11.5421 19.8748 9.1259C19.8748 6.70965 17.9161 4.7509 15.4998 4.7509C13.0836 4.7509 11.1248 6.70965 11.1248 9.1259C11.1248 11.5421 13.0836 13.5009 15.4998 13.5009Z" fill="#E2284D"/>
</svg>
