<svg width="24" height="24" viewBox="0 0 24 24" fill="none" xmlns="http://www.w3.org/2000/svg">
<g id="Icon / &#60;CrossIcon&#62;">
<path id="Vector" d="M11.9994 10.5866L6.70643 5.29357C6.51783 5.11141 6.26523 5.01062 6.00303 5.0129C5.74083 5.01517 5.49002 5.12034 5.30461 5.30575C5.1192 5.49116 5.01403 5.74197 5.01176 6.00417C5.00948 6.26636 5.11027 6.51897 5.29243 6.70757L10.5854 12.0006L5.29243 17.2936C5.11027 17.4822 5.00948 17.7348 5.01176 17.997C5.01403 18.2592 5.1192 18.51 5.30461 18.6954C5.49002 18.8808 5.74083 18.986 6.00303 18.9882C6.26523 18.9905 6.51783 18.8897 6.70643 18.7076L11.9994 13.4146L17.2924 18.7076C17.481 18.8897 17.7336 18.9905 17.9958 18.9882C18.258 18.986 18.5088 18.8808 18.6942 18.6954C18.8797 18.51 18.9848 18.2592 18.9871 17.997C18.9894 17.7348 18.8886 17.4822 18.7064 17.2936L13.4134 12.0006L18.7064 6.70757C18.8019 6.61532 18.8781 6.50498 18.9305 6.38297C18.9829 6.26097 19.0105 6.12975 19.0117 5.99697C19.0128 5.86419 18.9875 5.73251 18.9373 5.60962C18.887 5.48672 18.8127 5.37507 18.7188 5.28117C18.6249 5.18728 18.5133 5.11303 18.3904 5.06275C18.2675 5.01247 18.1358 4.98717 18.003 4.98832C17.8703 4.98947 17.739 5.01706 17.617 5.06947C17.495 5.12188 17.3847 5.19806 17.2924 5.29357L11.9994 10.5866Z" fill="#172B4D"/>
</g>
</svg>
