<svg width="24" height="25" viewBox="0 0 24 25" fill="none" xmlns="http://www.w3.org/2000/svg">
<path fill-rule="evenodd" clip-rule="evenodd" d="M5 5.14453C4.73478 5.14453 4.48043 5.24989 4.29289 5.43742C4.10536 5.62496 4 5.87931 4 6.14453V7.14453H20V6.14453C20 5.87931 19.8946 5.62496 19.7071 5.43742C19.5196 5.24989 19.2652 5.14453 19 5.14453H5ZM16.15 20.1445H7.845C7.60844 20.1445 7.37956 20.0605 7.19904 19.9077C7.01851 19.7548 6.89803 19.5429 6.859 19.3095L5 8.14453H19L17.136 19.3105C17.0969 19.5438 16.9764 19.7556 16.7959 19.9083C16.6153 20.061 16.3865 20.1447 16.15 20.1445ZM9 4.64453C8.99998 4.51347 9.05142 4.38764 9.14325 4.29412C9.23508 4.20061 9.35996 4.14689 9.491 4.14453H14.509C14.64 4.14689 14.7649 4.20061 14.8567 4.29412C14.9486 4.38764 15 4.51347 15 4.64453V5.14453H9V4.64453Z" fill="#44546F"/>
</svg>
