<svg width="30" height="30" viewBox="0 0 30 30" fill="none" xmlns="http://www.w3.org/2000/svg">
<path d="M17.5001 26.25H12.5001M2.86743 7.27487C2.8495 5.46068 3.8276 3.76656 5.4077 2.875M27.1279 7.27487C27.1458 5.46069 26.1677 3.76657 24.5876 2.875M22.5001 10C22.5001 8.01088 21.71 6.10322 20.3034 4.6967C18.8969 3.29018 16.9893 2.5 15.0001 2.5C13.011 2.5 11.1034 3.29018 9.69683 4.6967C8.2903 6.10322 7.50013 8.01088 7.50013 10C7.50013 13.8627 6.52572 16.5074 5.43721 18.2568C4.51904 19.7323 4.05995 20.4701 4.07678 20.6759C4.09542 20.9038 4.1437 20.9907 4.32735 21.127C4.4932 21.25 5.24087 21.25 6.7362 21.25H23.2641C24.7594 21.25 25.5071 21.25 25.6729 21.127C25.8566 20.9907 25.9048 20.9038 25.9235 20.6759C25.9403 20.4701 25.4812 19.7323 24.563 18.2568C23.4745 16.5074 22.5001 13.8627 22.5001 10Z" stroke="black" stroke-opacity="0.8" stroke-width="2" stroke-linecap="round" stroke-linejoin="round"/>
</svg>
