<svg width="25" height="24" viewBox="0 0 25 24" fill="none" xmlns="http://www.w3.org/2000/svg">
<path d="M12.518 10.5866L7.22499 5.29357C7.03638 5.11141 6.78378 5.01062 6.52158 5.0129C6.25939 5.01517 6.00858 5.12034 5.82317 5.30575C5.63776 5.49116 5.53259 5.74197 5.53031 6.00417C5.52803 6.26636 5.62883 6.51897 5.81099 6.70757L11.104 12.0006L5.81099 17.2936C5.62883 17.4822 5.52803 17.7348 5.53031 17.997C5.53259 18.2592 5.63776 18.51 5.82317 18.6954C6.00858 18.8808 6.25939 18.986 6.52158 18.9882C6.78378 18.9905 7.03638 18.8897 7.22499 18.7076L12.518 13.4146L17.811 18.7076C17.9996 18.8897 18.2522 18.9905 18.5144 18.9882C18.7766 18.986 19.0274 18.8808 19.2128 18.6954C19.3982 18.51 19.5034 18.2592 19.5057 17.997C19.5079 17.7348 19.4071 17.4822 19.225 17.2936L13.932 12.0006L19.225 6.70757C19.3205 6.61532 19.3967 6.50498 19.4491 6.38297C19.5015 6.26097 19.5291 6.12975 19.5302 5.99697C19.5314 5.86419 19.5061 5.73251 19.4558 5.60962C19.4055 5.48672 19.3313 5.37507 19.2374 5.28117C19.1435 5.18728 19.0318 5.11303 18.9089 5.06275C18.786 5.01247 18.6544 4.98717 18.5216 4.98832C18.3888 4.98947 18.2576 5.01706 18.1356 5.06947C18.0136 5.12188 17.9032 5.19806 17.811 5.29357L12.518 10.5866Z" fill="#172B4D"/>
</svg>
