<?xml version="1.0" standalone="no"?>
<!DOCTYPE svg PUBLIC "-//W3C//DTD SVG 1.0//EN" "http://www.w3.org/TR/2001/REC-SVG-20010904/DTD/svg10.dtd">
<svg xmlns="http://www.w3.org/2000/svg" xmlns:xlink="http://www.w3.org/1999/xlink" id="body_1" width="37" height="37">

<g transform="matrix(0.072265625 0 0 0.072265625 0 0)">
	<g>
        <path d="M237.5 -0.5C 289.167 -0.5 340.833 -0.5 392.5 -0.5C 444.847 10.3513 474.68 42.3513 482 95.5C 483.078 111.303 480.911 126.637 475.5 141.5C 467.164 160.683 454.497 176.516 437.5 189C 429.5 193.667 421.5 198.333 413.5 203C 409.559 206.438 406.225 210.271 403.5 214.5C 397.419 205.443 389.086 199.276 378.5 196C 346.539 194.703 314.539 194.037 282.5 194C 242.775 187.604 214.608 166.104 198 129.5C 183.348 88.8359 190.014 52.1692 218 19.5C 224.587 12.9094 231.753 7.07611 239.5 2C 220.752 3.86135 203.752 10.3614 188.5 21.5C 188.5 21.1667 188.5 20.8333 188.5 20.5C 203.047 9.39495 219.38 2.39495 237.5 -0.5z" stroke="none" fill="#F74E82" fill-rule="nonzero" fill-opacity="0.99607843" />
	</g>
	<g>
        <path d="M403.5 214.5C 402.444 218.168 401.278 221.835 400 225.5C 399.667 236.5 399.333 247.5 399 258.5C 398.096 263.461 395.096 266.128 390 266.5C 387.077 266.205 384.743 264.871 383 262.5C 373.223 247.723 363.056 233.223 352.5 219C 341.301 210.531 328.634 207.031 314.5 208.5C 288.831 208.667 263.165 208.5 237.5 208C 222.389 205.687 208.389 200.52 195.5 192.5C 150.816 158.935 137.649 115.602 156 62.5C 163.333 46.0069 174.166 32.3403 188.5 21.5C 203.752 10.3614 220.752 3.86135 239.5 2C 231.753 7.07611 224.587 12.9094 218 19.5C 190.014 52.1692 183.348 88.8359 198 129.5C 214.608 166.104 242.775 187.604 282.5 194C 314.539 194.037 346.539 194.703 378.5 196C 389.086 199.276 397.419 205.443 403.5 214.5z" stroke="none" fill="#DD3A71" fill-rule="nonzero" />
	</g>
	<g>
        <path d="M188.5 20.5C 188.5 20.8333 188.5 21.1667 188.5 21.5C 174.166 32.3403 163.333 46.0069 156 62.5C 137.649 115.602 150.816 158.935 195.5 192.5C 183.167 192.5 170.833 192.5 158.5 192.5C 115.727 186.253 79.8938 198.92 51 230.5C 20.4404 273.022 19.7737 316.022 49 359.5C 62.2198 375.051 78.0531 387.218 96.5 396C 103.164 402.156 107.664 409.656 110 418.5C 110.333 429.5 110.667 440.5 111 451.5C 114.193 458.348 119.026 459.848 125.5 456C 133.72 443.718 142.053 431.551 150.5 419.5C 156.785 410.058 165.451 403.891 176.5 401C 206.5 400.667 236.5 400.333 266.5 400C 316.086 393.416 347.252 365.916 360 317.5C 367.312 271.563 352.146 235.23 314.5 208.5C 328.634 207.031 341.301 210.531 352.5 219C 363.056 233.223 373.223 247.723 383 262.5C 384.743 264.871 387.077 266.205 390 266.5C 395.096 266.128 398.096 263.461 399 258.5C 399.333 247.5 399.667 236.5 400 225.5C 401.278 221.835 402.444 218.168 403.5 214.5C 406.225 210.271 409.559 206.438 413.5 203C 421.5 198.333 429.5 193.667 437.5 189C 454.497 176.516 467.164 160.683 475.5 141.5C 511.548 212.525 515.048 285.192 486 359.5C 456.881 425.317 408.714 471.15 341.5 497C 320.592 504.345 299.258 509.178 277.5 511.5C 262.5 511.5 247.5 511.5 232.5 511.5C 135.765 498.897 66.5987 448.564 25 360.5C 3.15199 306.408 -0.514678 251.075 14 194.5C 41.4131 105.587 99.5798 47.5868 188.5 20.5z" stroke="none" fill="#FCD23A" fill-rule="nonzero" fill-opacity="0.99215686" />
	</g>
	<g>
        <path d="M238.5 86.5C 255.541 85.7087 263.707 93.7087 263 110.5C 255.893 124.902 245.393 128.069 231.5 120C 224.6 111.77 223.767 102.937 229 93.5C 232.068 90.9174 235.235 88.5841 238.5 86.5z" stroke="none" fill="#F8F8FB" fill-rule="nonzero" />
	</g>
	<g>
        <path d="M309.5 86.5C 327.172 85.6708 335.006 94.0041 333 111.5C 326.844 123.887 317.344 127.387 304.5 122C 294.855 114.355 293.022 105.188 299 94.5C 301.975 90.9525 305.475 88.2858 309.5 86.5z" stroke="none" fill="#F8F8FB" fill-rule="nonzero" />
	</g>
	<g>
        <path d="M379.5 86.5C 397.828 85.9842 405.661 94.6509 403 112.5C 395.969 124.719 386.135 127.552 373.5 121C 366.456 114.082 364.623 105.915 368 96.5C 370.794 91.8659 374.627 88.5326 379.5 86.5z" stroke="none" fill="#F8F8FB" fill-rule="nonzero" />
	</g>
	<g>
        <path d="M158.5 192.5C 117.929 199.56 89.7622 222.227 74 260.5C 58.2413 322.561 79.0747 367.728 136.5 396C 143.378 402.601 148.045 410.434 150.5 419.5C 142.053 431.551 133.72 443.718 125.5 456C 119.026 459.848 114.193 458.348 111 451.5C 110.667 440.5 110.333 429.5 110 418.5C 107.664 409.656 103.164 402.156 96.5 396C 78.0531 387.218 62.2198 375.051 49 359.5C 19.7737 316.022 20.4404 273.022 51 230.5C 79.8938 198.92 115.727 186.253 158.5 192.5z" stroke="none" fill="#DDDDDC" fill-rule="nonzero" />
	</g>
	<g>
        <path d="M158.5 192.5C 170.833 192.5 183.167 192.5 195.5 192.5C 208.389 200.52 222.389 205.687 237.5 208C 263.165 208.5 288.831 208.667 314.5 208.5C 352.146 235.23 367.312 271.563 360 317.5C 347.252 365.916 316.086 393.416 266.5 400C 236.5 400.333 206.5 400.667 176.5 401C 165.451 403.891 156.785 410.058 150.5 419.5C 148.045 410.434 143.378 402.601 136.5 396C 79.0747 367.728 58.2413 322.561 74 260.5C 89.7622 222.227 117.929 199.56 158.5 192.5z" stroke="none" fill="#F7F9FC" fill-rule="nonzero" />
	</g>
	<g>
        <path d="M118.5 279.5C 139.439 278.926 146.939 288.592 141 308.5C 130.636 320.072 119.969 320.405 109 309.5C 102.146 296.229 105.313 286.229 118.5 279.5z" stroke="none" fill="#7A57BA" fill-rule="nonzero" />
	</g>
	<g>
        <path d="M188.5 279.5C 200.871 277.266 209.371 281.933 214 293.5C 213.937 313.233 204.437 320.399 185.5 315C 175.131 307.764 172.964 298.597 179 287.5C 181.772 284.217 184.939 281.55 188.5 279.5z" stroke="none" fill="#7B58BB" fill-rule="nonzero" />
	</g>
	<g>
        <path d="M259.5 279.5C 278.988 278.512 286.822 287.512 283 306.5C 276.931 316.144 268.431 319.31 257.5 316C 245.64 307.907 243.473 297.74 251 285.5C 253.736 283.248 256.569 281.248 259.5 279.5z" stroke="none" fill="#7A57BA" fill-rule="nonzero" />
	</g>
</g>
</svg>