<svg width="24" height="24" viewBox="0 0 24 24" fill="none" xmlns="http://www.w3.org/2000/svg">
<path d="M6.73488 12.3224C6.55434 12.1304 6.30529 12.0174 6.04189 12.0081C5.77849 11.9987 5.52205 12.0937 5.32832 12.2724C5.13459 12.4511 5.01924 12.6991 5.00736 12.9624C4.99549 13.2257 5.08803 13.483 5.26488 13.6784L8.87688 17.5974C9.41388 18.1234 10.2139 18.1234 10.7109 17.6274L11.0749 17.2684C12.3894 15.9756 13.7024 14.6813 15.0139 13.3854L15.0539 13.3454C16.2796 12.1375 17.4989 10.9231 18.7119 9.70241C18.8932 9.51261 18.9926 9.25915 18.9886 8.99671C18.9847 8.73427 18.8777 8.4839 18.6908 8.29963C18.5039 8.11535 18.2521 8.01195 17.9896 8.01172C17.7271 8.01149 17.4751 8.11446 17.2879 8.29841C16.0805 9.51275 14.8672 10.7211 13.6479 11.9234L13.6079 11.9634C12.3512 13.2057 11.0928 14.4464 9.83288 15.6854L6.73488 12.3224Z" fill="white"/>
</svg>
