<svg width="26" height="26" viewBox="0 0 26 26" fill="none" xmlns="http://www.w3.org/2000/svg">
<path d="M9.60467 9.49967C9.87896 8.71995 10.4204 8.06247 11.133 7.64366C11.8456 7.22486 12.6834 7.07177 13.498 7.2115C14.3127 7.35124 15.0516 7.77479 15.5839 8.40712C16.1162 9.03946 16.4076 9.83978 16.4063 10.6663C16.4063 12.9997 12.9063 14.1663 12.9063 14.1663M12.9997 18.833H13.0113M24.6663 12.9997C24.6663 19.443 19.443 24.6663 12.9997 24.6663C6.55635 24.6663 1.33301 19.443 1.33301 12.9997C1.33301 6.55635 6.55635 1.33301 12.9997 1.33301C19.443 1.33301 24.6663 6.55635 24.6663 12.9997Z" stroke="black" stroke-opacity="0.8" stroke-width="2" stroke-linecap="round" stroke-linejoin="round"/>
</svg>
