<?xml version="1.0" standalone="no"?>
<!DOCTYPE svg PUBLIC "-//W3C//DTD SVG 1.0//EN" "http://www.w3.org/TR/2001/REC-SVG-20010904/DTD/svg10.dtd">
<svg xmlns="http://www.w3.org/2000/svg" xmlns:xlink="http://www.w3.org/1999/xlink" id="body_1" width="37" height="37">

<g transform="matrix(0.072265625 0 0 0.072265625 0 0)">
	<g>
        <path d="M244.5 -0.5C 248.167 -0.5 251.833 -0.5 255.5 -0.5C 255.5 9.83333 255.5 20.1667 255.5 30.5C 244.324 30.337 235.824 35.0037 230 44.5C 224.959 53.4154 219.793 62.2488 214.5 71C 219.611 70.1954 224.777 69.3621 230 68.5C 241.429 69.6704 246.429 76.0037 245 87.5C 244.036 91.4685 241.869 94.6351 238.5 97C 220.904 102.532 203.237 107.865 185.5 113C 177.876 114.936 171.709 112.77 167 106.5C 161.464 88.8933 156.131 71.2266 151 53.5C 150.157 37.3265 157.657 31.1598 173.5 35C 175.09 36.0458 176.59 37.2125 178 38.5C 180.805 45.0573 183.305 51.724 185.5 58.5C 193 46.1667 200.5 33.8333 208 21.5C 217.591 9.71275 229.757 2.37942 244.5 -0.5z" stroke="none" fill="#CCFC5B" fill-rule="nonzero" fill-opacity="0.9764706" />
	</g>
	<g>
        <path d="M255.5 -0.5C 259.167 -0.5 262.833 -0.5 266.5 -0.5C 282.956 2.98993 296.122 11.6566 306 25.5C 319 47.8333 332 70.1667 345 92.5C 347.027 107.473 340.527 114.306 325.5 113C 322.098 111.6 319.264 109.433 317 106.5C 304.586 84.6692 291.919 63.0025 279 41.5C 273.008 33.9208 265.174 30.2541 255.5 30.5C 255.5 20.1667 255.5 9.83333 255.5 -0.5z" stroke="none" fill="#9DDD07" fill-rule="nonzero" />
	</g>
	<g>
        <path d="M255.5 134.5C 255.5 141.167 255.5 147.833 255.5 154.5C 244.828 154.667 234.161 154.5 223.5 154C 217.61 150.22 216.11 145.053 219 138.5C 220.214 136.951 221.714 135.785 223.5 135C 234.161 134.5 244.828 134.333 255.5 134.5z" stroke="none" fill="#0A789A" fill-rule="nonzero" fill-opacity="0.9843137" />
	</g>
	<g>
        <path d="M255.5 134.5C 266.172 134.333 276.839 134.5 287.5 135C 291.715 136.951 293.715 140.284 293.5 145C 281.831 173.856 269.498 202.356 256.5 230.5C 255.833 214.5 255.167 198.5 254.5 182.5C 258.76 173.644 262.76 164.644 266.5 155.5C 262.893 154.511 259.226 154.177 255.5 154.5C 255.5 147.833 255.5 141.167 255.5 134.5z" stroke="none" fill="#0A617D" fill-rule="nonzero" />
	</g>
	<g>
        <path d="M127.5 167.5C 141.528 167.694 147.362 174.694 145 188.5C 132.366 210.48 119.699 232.48 107 254.5C 101.808 275.62 109.641 289.12 130.5 295C 142.833 295.667 155.167 295.667 167.5 295C 164 291.5 160.5 288 157 284.5C 151.578 275.709 152.745 267.875 160.5 261C 166.167 257.667 171.833 257.667 177.5 261C 191.333 274.833 205.167 288.667 219 302.5C 221.256 308.675 220.923 314.675 218 320.5C 204.833 333.667 191.667 346.833 178.5 360C 166.782 365.435 158.616 362.268 154 350.5C 153.177 346.262 153.844 342.262 156 338.5C 159.833 334.667 163.667 330.833 167.5 327C 154.5 326.667 141.5 326.333 128.5 326C 100.029 322.198 82.1957 306.365 75 278.5C 72.5078 266.219 73.5078 254.219 78 242.5C 91.0808 219.336 104.414 196.336 118 173.5C 120.843 170.837 124.009 168.837 127.5 167.5z" stroke="none" fill="#CCFC5B" fill-rule="nonzero" fill-opacity="0.9764706" />
	</g>
	<g>
        <path d="M377.5 167.5C 396.669 171.542 415.669 176.376 434.5 182C 443.532 185.397 447.032 191.897 445 201.5C 442.602 208.548 437.602 212.214 430 212.5C 424.39 211.386 418.89 210.219 413.5 209C 420.379 219.921 426.879 231.087 433 242.5C 443.255 275.745 433.755 301.578 404.5 320C 399.637 322.066 394.637 323.732 389.5 325C 360.531 326.608 331.531 326.941 302.5 326C 291.046 321.916 287.546 314.082 292 302.5C 294.264 299.567 297.098 297.4 300.5 296C 326.833 295.667 353.167 295.333 379.5 295C 399.838 290.478 408.338 277.978 405 257.5C 399.188 245.876 392.854 234.542 386 223.5C 384 229.5 382 235.5 380 241.5C 372.311 249.979 363.978 250.645 355 243.5C 351.776 238.638 350.776 233.304 352 227.5C 356.667 210.833 361.333 194.167 366 177.5C 368.194 172.171 372.027 168.838 377.5 167.5z" stroke="none" fill="#9CDD04" fill-rule="nonzero" fill-opacity="0.98039216" />
	</g>
	<g>
        <path d="M254.5 182.5C 255.167 198.5 255.833 214.5 256.5 230.5C 253.757 238.485 250.09 245.985 245.5 253C 236.192 257.013 230.525 254.18 228.5 244.5C 236.615 223.603 245.282 202.936 254.5 182.5z" stroke="none" fill="#0A779B" fill-rule="nonzero" fill-opacity="0.9607843" />
	</g>
	<g>
        <path d="M79.5 511.5C 72.1667 511.5 64.8333 511.5 57.5 511.5C 21.8833 501.347 5.7166 477.68 9 440.5C 16.6628 409.334 36.4961 393 68.5 391.5C 100.5 392.996 120.334 409.329 128 440.5C 131.283 477.68 115.117 501.347 79.5 511.5zM60.5 412.5C 84.4799 410.339 99.9799 420.673 107 443.5C 109.648 467.501 99.4817 483.001 76.5 490C 52.4988 492.648 36.9988 482.482 30 459.5C 27.5588 435.474 37.7255 419.807 60.5 412.5z" stroke="none" fill="#0B779B" fill-rule="nonzero" fill-opacity="0.9647059" />
	</g>
	<g>
        <path d="M180.5 511.5C 177.167 511.5 173.833 511.5 170.5 511.5C 167.173 509.53 165.339 506.53 165 502.5C 164.5 472.168 164.333 441.835 164.5 411.5C 156.721 411.932 149.054 411.432 141.5 410C 137.286 405.8 136.452 400.966 139 395.5C 140.214 393.951 141.714 392.785 143.5 392C 164.833 391.333 186.167 391.333 207.5 392C 213.025 394.919 214.858 399.419 213 405.5C 212.215 407.286 211.049 408.786 209.5 410C 201.611 411.435 193.611 411.935 185.5 411.5C 185.667 442.835 185.5 474.168 185 505.5C 183.668 507.66 182.168 509.66 180.5 511.5z" stroke="none" fill="#0A789B" fill-rule="nonzero" fill-opacity="0.9843137" />
	</g>
	<g>
        <path d="M255.5 439.5C 255.5 446.5 255.5 453.5 255.5 460.5C 255.667 475.17 255.5 489.837 255 504.5C 254.033 507.621 252.2 509.954 249.5 511.5C 246.5 511.5 243.5 511.5 240.5 511.5C 238.193 510.023 236.36 508.023 235 505.5C 234.333 469.5 234.333 433.5 235 397.5C 236.935 393.198 240.268 391.198 245 391.5C 250.233 391.117 253.566 393.45 255 398.5C 255.5 412.163 255.667 425.829 255.5 439.5z" stroke="none" fill="#0A789A" fill-rule="nonzero" fill-opacity="0.9529412" />
	</g>
	<g>
        <path d="M318.5 511.5C 315.5 511.5 312.5 511.5 309.5 511.5C 306.8 509.954 304.967 507.621 304 504.5C 303.5 489.837 303.333 475.17 303.5 460.5C 287.5 460.5 271.5 460.5 255.5 460.5C 255.5 453.5 255.5 446.5 255.5 439.5C 271.5 439.5 287.5 439.5 303.5 439.5C 303.333 425.829 303.5 412.163 304 398.5C 305.434 393.45 308.767 391.117 314 391.5C 318.732 391.198 322.065 393.198 324 397.5C 324.667 433.5 324.667 469.5 324 505.5C 322.64 508.023 320.807 510.023 318.5 511.5z" stroke="none" fill="#0A617D" fill-rule="nonzero" />
	</g>
	<g>
        <path d="M403.5 511.5C 386.167 511.5 368.833 511.5 351.5 511.5C 348.658 509.156 346.825 506.156 346 502.5C 345.027 467.12 345.36 431.786 347 396.5C 348.167 394.667 349.667 393.167 351.5 392C 368.833 391.333 386.167 391.333 403.5 392C 411.5 398.333 411.5 404.667 403.5 411C 391.171 411.5 378.838 411.667 366.5 411.5C 366.5 421.5 366.5 431.5 366.5 441.5C 377.838 441.333 389.172 441.5 400.5 442C 405.275 445.655 406.775 450.488 405 456.5C 403.833 458.333 402.333 459.833 400.5 461C 389.172 461.5 377.838 461.667 366.5 461.5C 366.5 471.5 366.5 481.5 366.5 491.5C 378.838 491.333 391.171 491.5 403.5 492C 411.351 498.478 411.351 504.978 403.5 511.5z" stroke="none" fill="#0A617C" fill-rule="nonzero" fill-opacity="0.9882353" />
	</g>
	<g>
        <path d="M497.5 511.5C 494.167 511.5 490.833 511.5 487.5 511.5C 474.903 497.063 462.069 482.73 449 468.5C 448.667 481.167 448.333 493.833 448 506.5C 446.634 508.362 445.134 510.028 443.5 511.5C 440.167 511.5 436.833 511.5 433.5 511.5C 430.658 509.156 428.825 506.156 428 502.5C 427.333 468.5 427.333 434.5 428 400.5C 428.614 396.885 430.447 394.051 433.5 392C 447.167 391.333 460.833 391.333 474.5 392C 495.684 398.862 504.85 413.362 502 435.5C 497.967 450.366 488.467 459.699 473.5 463.5C 482.813 474.648 492.313 485.648 502 496.5C 503.746 502.658 502.246 507.658 497.5 511.5zM448.5 411.5C 455.896 411.2 463.229 411.7 470.5 413C 480.616 417.067 483.783 424.234 480 434.5C 476.26 439.79 471.093 442.623 464.5 443C 459.511 443.499 454.511 443.666 449.5 443.5C 449.787 432.782 449.454 422.115 448.5 411.5z" stroke="none" fill="#0A607C" fill-rule="nonzero" fill-opacity="0.9843137" />
	</g>
</g>
</svg>