<svg width="30" height="30" viewBox="0 0 30 30" fill="none" xmlns="http://www.w3.org/2000/svg">
<path fill-rule="evenodd" clip-rule="evenodd" d="M10.1575 12.5001H5C3.60875 12.5001 2.5 13.6188 2.5 15.0001V19.6626C2.5 21.3001 4.8425 22.2288 7.5 22.4501V18.7451C7.50199 17.7516 7.89787 16.7994 8.60084 16.0974C9.30382 15.3953 10.2565 15.0007 11.25 15.0001H11.6925C10.9424 14.339 10.4077 13.4681 10.1575 12.5001ZM19.8425 12.5001H25C26.3813 12.5001 27.5 13.6063 27.5 15.0001V19.6626C27.5 21.3001 25.1575 22.2288 22.5 22.4501V18.7451C22.4987 17.7514 22.103 16.7988 21.3999 16.0967C20.6968 15.3945 19.7437 15.0001 18.75 15.0001H18.3075C19.0576 14.339 19.5923 13.4681 19.8425 12.5001ZM12.4587 6.94257C12.3437 6.17889 11.9957 5.46934 11.4623 4.91088C10.9288 4.35241 10.2359 3.97227 9.47832 3.8224C8.7207 3.67252 7.93528 3.76022 7.22938 4.07351C6.52347 4.38679 5.93151 4.91039 5.53437 5.57276C5.13724 6.23513 4.95429 7.00396 5.01054 7.77421C5.06678 8.54446 5.35947 9.27856 5.84862 9.87621C6.33776 10.4739 6.99951 10.9059 7.74344 11.1133C8.48736 11.3207 9.27719 11.2934 10.005 11.0351C10.0404 10.2024 10.2835 9.39189 10.712 8.67714C11.1406 7.96238 11.741 7.36612 12.4587 6.94257ZM19.9963 11.0351C20.724 11.2933 21.5137 11.3206 22.2575 11.1132C23.0013 10.9058 23.663 10.4738 24.1521 9.87633C24.6412 9.27881 24.9339 8.54487 24.9903 7.77474C25.0467 7.00462 24.8639 6.23587 24.467 5.5735C24.0701 4.91112 23.4784 4.38742 22.7728 4.07393C22.0671 3.76043 21.2818 3.67243 20.5242 3.82194C19.7667 3.97145 19.0737 4.35118 18.5401 4.90926C18.0064 5.46735 17.658 6.17658 17.5425 6.94007C18.261 7.36341 18.8619 7.95997 19.2905 8.67528C19.7192 9.3906 19.9618 10.2019 19.9963 11.0351Z" fill="#44546F"/>
<path fill-rule="evenodd" clip-rule="evenodd" d="M8.75 18.7501C8.75 17.3688 9.85875 16.2501 11.25 16.2501H18.75C20.1313 16.2501 21.25 17.3563 21.25 18.7501V23.4126C21.25 27.1963 8.75 27.1963 8.75 23.4126V18.7501Z" fill="#44546F"/>
<path d="M15 15.0001C17.0711 15.0001 18.75 13.3211 18.75 11.2501C18.75 9.17901 17.0711 7.50007 15 7.50007C12.9289 7.50007 11.25 9.17901 11.25 11.2501C11.25 13.3211 12.9289 15.0001 15 15.0001Z" fill="#44546F"/>
</svg>
