<svg width="24" height="24" viewBox="0 0 24 24" fill="none" xmlns="http://www.w3.org/2000/svg">
<path d="M3.00002 18C3.00002 18.552 3.44502 19 3.99302 19H20.007C20.138 18.9999 20.2676 18.9739 20.3885 18.9235C20.5094 18.8731 20.6191 18.7993 20.7114 18.7064C20.8036 18.6135 20.8766 18.5032 20.9262 18.382C20.9757 18.2608 21.0008 18.131 21 18V17H3.00002V18ZM3.00002 11H21V9H3.00002V11ZM3.00002 7H21V6C21 5.448 20.555 5 20.007 5H3.99302C3.86206 5.00013 3.73242 5.02613 3.61155 5.07652C3.49067 5.12691 3.38095 5.20068 3.28867 5.29361C3.1964 5.38653 3.12339 5.49678 3.07386 5.618C3.02432 5.73923 2.99923 5.86905 3.00002 6V7ZM3.00002 15H21V13H3.00002V15Z" fill="white"/>
</svg>
