<svg width="25" height="20" viewBox="0 0 25 20" fill="none" xmlns="http://www.w3.org/2000/svg">
<path d="M4.3931 15L3.53621 15.71C3.31142 15.8974 3.18525 16.1508 3.18525 16.415C3.18525 16.6792 3.31142 16.9326 3.53621 17.12C3.76233 17.3063 4.06822 17.4108 4.38707 17.4108C4.70591 17.4108 5.0118 17.3063 5.23793 17.12L6.09483 16.41C6.29255 16.2187 6.39587 15.9726 6.38413 15.7209C6.3724 15.4693 6.24648 15.2305 6.03154 15.0524C5.8166 14.8743 5.52847 14.77 5.22472 14.7603C4.92097 14.7506 4.62398 14.8362 4.3931 15ZM3.62069 10C3.62069 9.73478 3.49353 9.48043 3.2672 9.29289C3.04086 9.10536 2.73388 9 2.41379 9H1.2069C0.886808 9 0.579829 9.10536 0.353492 9.29289C0.127155 9.48043 0 9.73478 0 10C0 10.2652 0.127155 10.5196 0.353492 10.7071C0.579829 10.8946 0.886808 11 1.2069 11H2.41379C2.73388 11 3.04086 10.8946 3.2672 10.7071C3.49353 10.5196 3.62069 10.2652 3.62069 10ZM12.069 3C12.3891 3 12.696 2.89464 12.9224 2.70711C13.1487 2.51957 13.2759 2.26522 13.2759 2V1C13.2759 0.734784 13.1487 0.48043 12.9224 0.292893C12.696 0.105357 12.3891 0 12.069 0C11.7489 0 11.4419 0.105357 11.2156 0.292893C10.9892 0.48043 10.8621 0.734784 10.8621 1V2C10.8621 2.26522 10.9892 2.51957 11.2156 2.70711C11.4419 2.89464 11.7489 3 12.069 3ZM4.3931 5.05C4.6179 5.23474 4.92131 5.3389 5.23793 5.34C5.39677 5.34076 5.55422 5.31554 5.70127 5.26577C5.84831 5.21601 5.98206 5.14268 6.09483 5.05C6.31961 4.86264 6.44578 4.60919 6.44578 4.345C6.44578 4.08081 6.31961 3.82736 6.09483 3.64L5.23793 2.93C5.00705 2.76617 4.71006 2.68057 4.40631 2.69029C4.10257 2.70001 3.81443 2.80434 3.59949 2.98244C3.38455 3.16053 3.25863 3.39927 3.2469 3.65095C3.23517 3.90262 3.33849 4.1487 3.53621 4.34L4.3931 5.05ZM18.8759 5.34C19.1925 5.3389 19.4959 5.23474 19.7207 5.05L20.5776 4.34C20.7039 4.25035 20.8065 4.14004 20.879 4.01597C20.9514 3.89191 20.9921 3.75677 20.9985 3.61905C21.005 3.48133 20.977 3.344 20.9163 3.21568C20.8556 3.08735 20.7636 2.9708 20.646 2.87335C20.5283 2.77589 20.3877 2.69964 20.2328 2.64936C20.0779 2.59909 19.9122 2.57588 19.746 2.5812C19.5798 2.58652 19.4167 2.62025 19.2669 2.68027C19.1172 2.7403 18.9841 2.82532 18.8759 2.93L18.1034 3.64C17.8787 3.82736 17.7525 4.08081 17.7525 4.345C17.7525 4.60919 17.8787 4.86264 18.1034 5.05C18.3162 5.22536 18.6002 5.32875 18.9 5.34H18.8759ZM22.931 9H21.7241C21.4041 9 21.0971 9.10536 20.8707 9.29289C20.6444 9.48043 20.5172 9.73478 20.5172 10C20.5172 10.2652 20.6444 10.5196 20.8707 10.7071C21.0971 10.8946 21.4041 11 21.7241 11H22.931C23.2511 11 23.5581 10.8946 23.7844 10.7071C24.0108 10.5196 24.1379 10.2652 24.1379 10C24.1379 9.73478 24.0108 9.48043 23.7844 9.29289C23.5581 9.10536 23.2511 9 22.931 9ZM12.069 17C11.7489 17 11.4419 17.1054 11.2156 17.2929C10.9892 17.4804 10.8621 17.7348 10.8621 18V19C10.8621 19.2652 10.9892 19.5196 11.2156 19.7071C11.4419 19.8946 11.7489 20 12.069 20C12.3891 20 12.696 19.8946 12.9224 19.7071C13.1487 19.5196 13.2759 19.2652 13.2759 19V18C13.2759 17.7348 13.1487 17.4804 12.9224 17.2929C12.696 17.1054 12.3891 17 12.069 17ZM19.7448 15C19.5155 14.8943 19.2509 14.8534 18.9911 14.8835C18.7312 14.9136 18.4903 15.0131 18.3048 15.1668C18.1192 15.3205 17.9992 15.5202 17.9629 15.7355C17.9266 15.9508 17.9759 16.17 18.1034 16.36L18.9603 17.07C19.1865 17.2563 19.4924 17.3608 19.8112 17.3608C20.1301 17.3608 20.4359 17.2563 20.6621 17.07C20.8869 16.8826 21.013 16.6292 21.013 16.365C21.013 16.1008 20.8869 15.8474 20.6621 15.66L19.7448 15ZM12.069 4.5C10.7561 4.5 9.47273 4.82257 8.38113 5.42692C7.28953 6.03126 6.43873 6.89025 5.93632 7.89524C5.43391 8.90023 5.30245 10.0061 5.55858 11.073C5.81471 12.1399 6.44691 13.1199 7.37524 13.8891C8.30357 14.6583 9.48634 15.1821 10.774 15.3943C12.0616 15.6065 13.3963 15.4976 14.6092 15.0813C15.8221 14.6651 16.8588 13.9601 17.5882 13.0556C18.3176 12.1512 18.7069 11.0878 18.7069 10C18.7037 8.54212 18.0033 7.14471 16.7592 6.11383C15.515 5.08295 13.8285 4.50264 12.069 4.5ZM12.069 13.5C11.2335 13.5 10.4168 13.2947 9.72216 12.9101C9.0275 12.5256 8.48609 11.9789 8.16637 11.3394C7.84666 10.6999 7.763 9.99612 7.92599 9.31718C8.08898 8.63825 8.49129 8.01461 9.08205 7.52513C9.67281 7.03564 10.4255 6.7023 11.2449 6.56725C12.0643 6.4322 12.9136 6.50151 13.6855 6.76642C14.4573 7.03133 15.1171 7.47993 15.5812 8.0555C16.0454 8.63108 16.2931 9.30777 16.2931 10C16.2931 10.9283 15.8481 11.8185 15.0559 12.4749C14.2637 13.1313 13.1893 13.5 12.069 13.5Z" fill="#0070F0"/>
</svg>
